<svg width="251" height="251" viewBox="0 0 251 251" fill="none" xmlns="http://www.w3.org/2000/svg">
<g clip-path="url(#clip0_24_3612)">
<path d="M33.9869 197.812C33.9869 197.812 33.1289 192.312 31.4414 191.625C29.7539 190.937 31.7539 195.875 31.7539 195.875C31.7539 195.875 29.0039 193.25 27.3789 193.75C25.7539 194.25 31.5039 197.812 31.5039 197.812H33.9869Z" fill="#E6E6E6"/>
<path d="M93.1175 205.607C93.1175 205.607 91.266 198.02 86.2865 196.538C81.307 195.056 77.4765 198.253 77.4765 198.253C77.4765 198.253 76.2675 195.212 73.4245 194.9C70.5815 194.588 68.1305 196.693 68.1305 196.693C68.1305 196.693 65.8325 187.489 58.0185 186.865C50.2045 186.241 47.2935 194.9 47.2935 194.9C47.2935 194.9 45.765 192.914 42.0095 193.712C38.254 194.51 36.971 198.331 36.971 198.331C36.971 198.331 32.1255 195.534 27.6055 197.791C23.0855 200.047 22.09 205.607 22.09 205.607H93.1175V205.607Z" fill="#F0F0F0"/>
<path d="M222.854 175.072H132.481C130.865 175.072 129.55 173.757 129.55 172.141V40.5045C129.55 38.8885 130.865 37.5735 132.481 37.5735H222.854C224.47 37.5735 225.785 38.888 225.785 40.5045V172.141C225.785 173.757 224.47 175.072 222.854 175.072ZM132.481 37.6985C130.934 37.6985 129.675 38.9575 129.675 40.5045V172.141C129.675 173.688 130.934 174.947 132.481 174.947H222.854C224.402 174.947 225.66 173.688 225.66 172.141V40.5045C225.66 38.9575 224.401 37.6985 222.854 37.6985H132.481Z" fill="#F0F0F0"/>
<path d="M118.64 175.072H28.2671C26.6511 175.072 25.3361 173.757 25.3361 172.141V40.5045C25.3361 38.8885 26.6506 37.5735 28.2671 37.5735H118.64C120.256 37.5735 121.571 38.888 121.571 40.5045V172.141C121.572 173.757 120.257 175.072 118.64 175.072ZM28.2671 37.6985C26.7201 37.6985 25.4611 38.9575 25.4611 40.5045V172.141C25.4611 173.688 26.7201 174.947 28.2671 174.947H118.64C120.188 174.947 121.446 173.688 121.446 172.141V40.5045C121.446 38.9575 120.187 37.6985 118.64 37.6985H28.2671Z" fill="#F0F0F0"/>
<path d="M250.5 205.607H0.5V205.732H250.5V205.607Z" fill="#F0F0F0"/>
<path d="M190.077 70.0695C189.125 67.85 186.725 63.7025 181.766 62.571C177.229 61.536 173.801 67.269 170.988 67.6915C168.175 68.114 168.488 66.8465 162.861 64.7345C158.049 62.9285 154.823 67.626 153.683 70.0695H190.077Z" fill="#F5F5F5"/>
<path d="M79.953 60.9385C79.953 60.9385 79.953 55.8875 74.992 55.676C72.6215 55.575 69.7245 57.5165 67.8955 54.446C65.7715 50.8805 62.0545 48.7565 58.71 50.1365C55.0145 51.661 52.9185 57.5035 49.311 57.0255C45.703 56.547 38.8135 54.1455 35.256 60.9385H79.953Z" fill="#F5F5F5"/>
<path d="M218.308 56.21C217.819 62.755 212.118 67.6655 205.571 67.1765C204.677 67.11 203.813 66.9455 202.989 66.695C201.953 66.3805 200.981 65.9295 200.091 65.364C199.297 64.8595 198.569 64.264 197.92 63.5935C197.721 63.3885 197.53 63.1765 197.347 62.958C196.542 61.998 195.889 60.912 195.418 59.737C195.326 59.5075 195.241 59.275 195.164 59.0395C194.689 57.6 194.484 56.045 194.604 54.44C194.615 54.2935 194.629 54.1465 194.647 54.0005C195.35 47.6765 200.943 42.9955 207.341 43.473C208.915 43.5905 210.395 44.01 211.727 44.6695C211.985 44.797 212.237 44.9335 212.483 45.0785C213.558 45.712 214.521 46.5085 215.341 47.4315C215.521 47.635 215.695 47.844 215.861 48.0595C216.453 48.8255 216.953 49.6635 217.345 50.5575C217.749 51.479 218.039 52.459 218.198 53.479C218.314 54.2235 218.361 54.9895 218.331 55.7685C218.327 55.9165 218.319 56.0635 218.308 56.21Z" fill="#F5F5F5"/>
<path d="M215.887 56.467C215.895 56.227 215.892 55.987 215.881 55.75C215.831 54.6755 215.599 53.639 215.213 52.677C214.82 51.6885 214.26 50.7785 213.572 49.9845C213.395 49.7785 213.209 49.581 213.016 49.3925C212.12 48.519 211.051 47.8175 209.859 47.349C209.567 47.236 209.267 47.134 208.964 47.0485C208.364 46.88 207.742 46.769 207.099 46.7205C202.02 46.342 197.564 50.0475 196.959 55.053C196.966 54.908 196.973 54.7635 196.983 54.6175C197.373 49.3955 201.941 45.4625 207.163 45.852C212.387 46.243 216.318 50.81 215.929 56.032C215.918 56.178 215.903 56.324 215.887 56.467Z" fill="#E0E0E0"/>
<g opacity="0.3">
<path d="M205.748 64.7974C205.634 64.7899 205.523 64.7794 205.412 64.7659L205.41 64.7649C205.295 64.7524 205.184 64.7389 205.071 64.7224C205.042 64.7189 205.015 64.7134 204.987 64.7094C204.865 64.6909 204.745 64.6684 204.627 64.6469C204.609 64.6429 204.591 64.6394 204.575 64.6364C204.185 64.5589 203.805 64.4564 203.435 64.3314C203.31 64.2889 203.185 64.2459 203.063 64.1974C202.816 64.1039 202.577 64.0009 202.342 63.8879L202.336 63.8849C202.261 63.8484 202.184 63.8089 202.11 63.7709C202.069 63.7514 202.029 63.7294 201.987 63.7069C201.927 63.6754 201.868 63.6419 201.811 63.6094C201.719 63.5604 201.629 63.5069 201.54 63.4514C201.425 63.3834 201.311 63.3109 201.2 63.2344C201.089 63.1614 200.978 63.0849 200.87 63.0054C200.781 62.9399 200.694 62.8754 200.607 62.8059C200.55 62.7634 200.495 62.7164 200.439 62.6699C200.393 62.6349 200.349 62.5964 200.304 62.5594C200.252 62.5144 200.201 62.4699 200.152 62.4259C200.071 62.3544 199.991 62.2804 199.912 62.2049C199.843 62.1389 199.774 62.0734 199.709 62.0044C199.694 61.9894 199.678 61.9744 199.663 61.9594C199.57 61.8614 199.476 61.7639 199.384 61.6619C199.299 61.5679 199.217 61.4709 199.135 61.3709C199.13 61.3659 199.126 61.3619 199.121 61.3569C199.072 61.2979 199.023 61.2369 198.977 61.1769C198.928 61.1159 198.883 61.0539 198.837 60.9914C198.793 60.9324 198.748 60.8734 198.705 60.8119C198.66 60.7449 198.613 60.6794 198.57 60.6134C198.527 60.5504 198.486 60.4849 198.442 60.4189C198.401 60.3539 198.361 60.2894 198.321 60.2224C198.238 60.0869 198.159 59.9484 198.083 59.8039C198.051 59.7454 198.02 59.6884 197.991 59.6289C197.916 59.4874 197.848 59.3414 197.783 59.1944C197.75 59.1229 197.718 59.0524 197.69 58.9809C197.593 58.7534 197.509 58.5219 197.431 58.2879C197.411 58.2254 197.391 58.1609 197.371 58.0984C197.329 57.9574 197.288 57.8169 197.252 57.6739C197.25 57.6679 197.248 57.6599 197.246 57.6539C197.21 57.5109 197.176 57.3664 197.148 57.2219C197.135 57.1554 197.119 57.0874 197.107 57.0189C197.101 56.9854 197.097 56.9514 197.091 56.9179C197.078 56.8464 197.066 56.7754 197.056 56.7029C197.054 56.6919 197.052 56.6804 197.052 56.6704C197.038 56.5884 197.028 56.5059 197.02 56.4239C197.008 56.3329 196.999 56.2429 196.992 56.1519C196.983 56.0619 196.976 55.9709 196.972 55.8809C196.967 55.8079 196.964 55.7364 196.962 55.6624C196.959 55.6159 196.958 55.5704 196.958 55.5249C196.956 55.4609 196.955 55.3954 196.956 55.3304C196.955 55.2374 196.957 55.1449 196.959 55.0529C197.563 50.0474 202.019 46.3419 207.098 46.7204C207.741 46.7684 208.363 46.8799 208.963 47.0484C209.266 47.1339 209.566 47.2359 209.859 47.3489C211.05 47.8174 212.12 48.5184 213.015 49.3924C213.208 49.5809 213.395 49.7784 213.572 49.9844C214.26 50.7784 214.819 51.6884 215.212 52.6769C215.598 53.6389 215.83 54.6754 215.88 55.7499C215.892 55.9869 215.894 56.2264 215.887 56.4669C215.282 61.4729 210.826 65.1784 205.748 64.7974Z" fill="black"/>
</g>
<path d="M205.748 64.7974C205.634 64.7899 205.523 64.7794 205.412 64.7659L205.41 64.7649C205.295 64.7524 205.184 64.7389 205.071 64.7224C205.042 64.7189 205.015 64.7134 204.987 64.7094C204.865 64.6909 204.745 64.6684 204.627 64.6469C204.609 64.6429 204.591 64.6394 204.575 64.6364C204.186 64.5569 203.805 64.4564 203.435 64.3314C203.31 64.2889 203.185 64.2459 203.063 64.1974C202.816 64.1039 202.577 64.0009 202.342 63.8879L202.246 63.8419C202.199 63.8194 202.155 63.7959 202.11 63.7709C202.069 63.7514 202.029 63.7294 201.987 63.7069C201.927 63.6754 201.868 63.6419 201.811 63.6094C201.719 63.5604 201.629 63.5069 201.54 63.4514C201.425 63.3834 201.311 63.3109 201.2 63.2344C201.089 63.1614 200.978 63.0849 200.87 63.0054C200.781 62.9399 200.694 62.8754 200.607 62.8059C200.55 62.7634 200.495 62.7164 200.439 62.6699C200.393 62.6349 200.349 62.5964 200.304 62.5594C200.252 62.5144 200.201 62.4699 200.152 62.4259C200.071 62.3544 199.991 62.2804 199.912 62.2049C199.843 62.1389 199.774 62.0734 199.709 62.0044C199.694 61.9894 199.678 61.9744 199.663 61.9594C199.57 61.8614 199.476 61.7639 199.384 61.6619C199.299 61.5679 199.217 61.4709 199.135 61.3709C199.13 61.3659 199.126 61.3619 199.121 61.3569C199.072 61.2979 199.023 61.2369 198.977 61.1769C198.928 61.1159 198.883 61.0539 198.837 60.9914C198.793 60.9324 198.748 60.8734 198.705 60.8119C198.66 60.7449 198.613 60.6794 198.57 60.6134C198.527 60.5504 198.486 60.4849 198.442 60.4189C198.401 60.3539 198.361 60.2894 198.321 60.2224C198.238 60.0869 198.159 59.9484 198.083 59.8039C198.051 59.7454 198.02 59.6884 197.991 59.6289C197.916 59.4874 197.848 59.3414 197.783 59.1944C197.75 59.1229 197.718 59.0524 197.69 58.9809C197.593 58.7534 197.509 58.5219 197.431 58.2879C197.411 58.2254 197.391 58.1609 197.371 58.0984C197.329 57.9574 197.288 57.8169 197.252 57.6739C197.25 57.6679 197.248 57.6599 197.246 57.6539C197.21 57.5109 197.176 57.3664 197.148 57.2219C197.135 57.1554 197.119 57.0874 197.107 57.0189C197.101 56.9854 197.097 56.9514 197.091 56.9179C197.078 56.8464 197.066 56.7754 197.056 56.7029C197.054 56.6919 197.052 56.6804 197.052 56.6704C197.038 56.5884 197.028 56.5059 197.02 56.4239C197.008 56.3329 196.999 56.2429 196.992 56.1519C196.983 56.0619 196.976 55.9709 196.972 55.8809C196.967 55.8079 196.964 55.7364 196.962 55.6624C196.959 55.6159 196.958 55.5704 196.958 55.5249C196.956 55.4609 196.955 55.3954 196.956 55.3304C196.955 55.2374 196.957 55.1449 196.959 55.0529C197.563 50.0474 202.019 46.3419 207.098 46.7204C207.741 46.7684 208.363 46.8799 208.963 47.0484C209.266 47.1339 209.566 47.2359 209.859 47.3489C211.05 47.8174 212.12 48.5184 213.015 49.3924C213.208 49.5809 213.395 49.7784 213.572 49.9844C214.26 50.7784 214.819 51.6884 215.212 52.6769C215.598 53.6389 215.83 54.6754 215.88 55.7499C215.892 55.9869 215.894 56.2264 215.887 56.4669C215.282 61.4729 210.826 65.1784 205.748 64.7974Z" fill="#F0F0F0"/>
<path d="M207.372 60.798L207.255 62.372L205.256 62.2225L205.368 60.7195C203.956 60.5285 202.61 60.043 201.798 59.455L203.058 57.097C203.952 57.72 205.173 58.1675 206.265 58.249C207.215 58.32 207.57 58.147 207.596 57.8065C207.689 56.559 202.127 57.156 202.403 53.4555C202.523 51.8535 203.786 50.593 206.136 50.4405L206.251 48.895L208.25 49.0445L208.137 50.5615C209.179 50.739 210.179 51.085 210.954 51.599L209.766 53.9485C208.825 53.379 207.921 53.0695 207.056 53.005C206.078 52.932 205.745 53.192 205.719 53.5325C205.63 54.7235 211.191 54.1405 210.918 57.799C210.804 59.329 209.598 60.5795 207.372 60.798Z" fill="#E0E0E0"/>
<path d="M207.353 60.27L207.235 61.8435L205.236 61.694L205.348 60.191C203.937 60 202.59 59.5145 201.779 58.9265L203.038 56.568C203.933 57.191 205.154 57.6385 206.246 57.72C207.196 57.791 207.551 57.618 207.576 57.2775C207.669 56.03 202.107 56.627 202.384 52.9265C202.503 51.3245 203.767 50.064 206.116 49.9115L206.232 48.366L208.231 48.5155L208.117 50.0325C209.159 50.21 210.16 50.556 210.934 51.07L209.746 53.4195C208.805 52.85 207.901 52.5405 207.037 52.476C206.058 52.403 205.725 52.663 205.7 53.0035C205.611 54.1945 211.172 53.6115 210.899 57.27C210.785 58.801 209.579 60.0515 207.353 60.27Z" fill="#F5F5F5"/>
<path d="M78.7149 85.945C81.3009 91.977 78.5079 98.9645 72.4744 101.551C71.6504 101.904 70.8079 102.157 69.9614 102.315C68.8974 102.514 67.8264 102.562 66.7764 102.471C65.8389 102.39 64.9179 102.197 64.0329 101.902C63.7624 101.812 63.4949 101.712 63.2319 101.602C62.0749 101.122 60.9939 100.459 60.0344 99.6345C59.8469 99.4735 59.6639 99.3065 59.4869 99.133C58.4019 98.075 57.5024 96.79 56.8684 95.3105C56.8104 95.1755 56.7554 95.039 56.7034 94.9015C54.4094 88.966 57.2119 82.2325 63.1089 79.705C64.5599 79.083 66.0664 78.772 67.5529 78.7425C67.8404 78.737 68.1269 78.7415 68.4119 78.757C69.6584 78.823 70.8799 79.0855 72.0329 79.526C72.2869 79.623 72.5374 79.7285 72.7844 79.843C73.6629 80.2495 74.4929 80.7625 75.2529 81.3745C76.0364 82.0055 76.7459 82.7415 77.3579 83.5725C77.8044 84.1795 78.1989 84.8375 78.5319 85.5425C78.5969 85.6755 78.6569 85.81 78.7149 85.945Z" fill="#F5F5F5"/>
<path d="M76.6864 87.2895C76.5824 87.073 76.4694 86.8615 76.3499 86.6565C75.8094 85.7265 75.1254 84.914 74.3394 84.238C73.5344 83.5425 72.6184 82.993 71.6419 82.606C71.3899 82.505 71.1334 82.4155 70.8749 82.3375C69.6769 81.9755 68.4049 81.847 67.1314 81.981C66.8199 82.0155 66.5064 82.0635 66.1984 82.1275C65.5884 82.255 64.9849 82.4435 64.3929 82.697C59.7119 84.7045 57.4679 90.048 59.2409 94.768C59.1804 94.636 59.1194 94.5045 59.0609 94.3705C56.9974 89.5575 59.2359 83.9605 64.0484 81.897C68.8634 79.8335 74.4584 82.072 76.5219 86.885C76.5809 87.019 76.6349 87.1555 76.6864 87.2895Z" fill="#E0E0E0"/>
<g opacity="0.3">
<path d="M71.5349 99.3585C71.4299 99.4045 71.3269 99.4465 71.2219 99.486H71.2199C71.1124 99.528 71.0074 99.5675 70.8994 99.6045C70.8724 99.6145 70.8454 99.622 70.8189 99.632C70.7024 99.672 70.5859 99.707 70.4714 99.7425C70.4534 99.7475 70.4354 99.7525 70.4199 99.7575C70.0384 99.869 69.6534 99.953 69.2679 100.012C69.1369 100.032 69.0064 100.052 68.8754 100.065C68.6134 100.096 68.3539 100.115 68.0934 100.123H68.0864C68.0029 100.126 67.9169 100.126 67.8329 100.127C67.7879 100.128 67.7424 100.127 67.6949 100.126C67.6269 100.126 67.5589 100.124 67.4934 100.121C67.3894 100.12 67.2849 100.114 67.1804 100.106C67.0464 100.099 66.9124 100.087 66.7784 100.071C66.6464 100.057 66.5124 100.04 66.3804 100.019C66.2714 100.002 66.1644 99.9855 66.0549 99.964C65.9844 99.9525 65.9134 99.9365 65.8429 99.9205C65.7859 99.911 65.7289 99.897 65.6719 99.885C65.6059 99.869 65.5394 99.853 65.4754 99.8365C65.3704 99.81 65.2654 99.782 65.1604 99.751C65.0689 99.7245 64.9774 99.698 64.8884 99.6665C64.8679 99.6605 64.8474 99.654 64.8269 99.648C64.6989 99.6045 64.5704 99.5605 64.4424 99.5125C64.3234 99.4685 64.2064 99.42 64.0869 99.3695C64.0799 99.3675 64.0754 99.3655 64.0684 99.363C63.9974 99.3335 63.9259 99.3015 63.8569 99.27C63.7859 99.238 63.7169 99.204 63.6479 99.17C63.5814 99.138 63.5144 99.106 63.4479 99.072C63.3764 99.0335 63.3054 98.997 63.2359 98.9585C63.1689 98.922 63.1024 98.8835 63.0329 98.8445C62.9659 98.806 62.9014 98.767 62.8344 98.726C62.6984 98.644 62.5644 98.5575 62.4299 98.4645C62.3744 98.4275 62.3214 98.391 62.2679 98.3515C62.1359 98.2605 62.0084 98.1625 61.8829 98.062C61.8204 98.014 61.7599 97.966 61.7019 97.916C61.5114 97.759 61.3299 97.5925 61.1524 97.421C61.1059 97.375 61.0589 97.3265 61.0124 97.2805C60.9094 97.175 60.8089 97.0695 60.7104 96.959C60.7059 96.9545 60.7009 96.948 60.6964 96.9435C60.5979 96.8335 60.5014 96.7205 60.4099 96.606C60.3674 96.553 60.3229 96.5 60.2804 96.4445C60.2589 96.418 60.2404 96.389 60.2189 96.3625C60.1739 96.305 60.1314 96.2475 60.0889 96.1875C60.0819 96.1785 60.0749 96.17 60.0699 96.161C60.0204 96.0945 59.9729 96.026 59.9279 95.957C59.8759 95.8815 59.8259 95.806 59.7784 95.7285C59.7284 95.653 59.6809 95.575 59.6354 95.4975C59.5974 95.4355 59.5614 95.373 59.5254 95.3085C59.5014 95.2685 59.4799 95.2285 59.4584 95.1885C59.4274 95.133 59.3959 95.075 59.3669 95.017C59.3234 94.9345 59.2824 94.852 59.2414 94.7695C57.4684 90.0495 59.7119 84.706 64.3934 82.6985C64.9859 82.445 65.5894 82.2565 66.1989 82.129C66.5074 82.065 66.8204 82.017 67.1319 81.9825C68.4049 81.8485 69.6774 81.977 70.8754 82.339C71.1339 82.417 71.3904 82.5065 71.6424 82.6075C72.6189 82.9945 73.5349 83.544 74.3399 84.2395C75.1259 84.9155 75.8099 85.728 76.3504 86.658C76.4699 86.8625 76.5829 87.0745 76.6869 87.291C78.4594 92.0095 76.2159 97.353 71.5349 99.3585Z" fill="black"/>
</g>
<path d="M71.5349 99.3585C71.4299 99.4045 71.3269 99.4465 71.2219 99.486H71.2199C71.1124 99.528 71.0074 99.5675 70.8994 99.6045C70.8724 99.6145 70.8454 99.622 70.8189 99.632C70.7024 99.672 70.5859 99.707 70.4714 99.7425C70.4534 99.7475 70.4354 99.7525 70.4199 99.7575C70.0379 99.8665 69.6534 99.953 69.2679 100.012C69.1369 100.032 69.0064 100.052 68.8754 100.065C68.6134 100.096 68.3539 100.115 68.0934 100.123L67.9869 100.127C67.9349 100.128 67.8849 100.128 67.8329 100.127C67.7879 100.128 67.7424 100.127 67.6949 100.126C67.6269 100.126 67.5589 100.124 67.4934 100.121C67.3894 100.12 67.2849 100.114 67.1804 100.106C67.0464 100.099 66.9124 100.087 66.7784 100.071C66.6464 100.057 66.5124 100.04 66.3804 100.019C66.2714 100.002 66.1644 99.9855 66.0549 99.964C65.9844 99.9525 65.9134 99.9365 65.8429 99.9205C65.7859 99.911 65.7289 99.897 65.6719 99.885C65.6059 99.869 65.5394 99.853 65.4754 99.8365C65.3704 99.81 65.2654 99.782 65.1604 99.751C65.0689 99.7245 64.9774 99.698 64.8884 99.6665C64.8679 99.6605 64.8474 99.654 64.8269 99.648C64.6989 99.6045 64.5704 99.5605 64.4424 99.5125C64.3234 99.4685 64.2064 99.42 64.0869 99.3695C64.0799 99.3675 64.0754 99.3655 64.0684 99.363C63.9974 99.3335 63.9259 99.3015 63.8569 99.27C63.7859 99.238 63.7169 99.204 63.6479 99.17C63.5814 99.138 63.5144 99.106 63.4479 99.072C63.3764 99.0335 63.3054 98.997 63.2359 98.9585C63.1689 98.922 63.1024 98.8835 63.0329 98.8445C62.9659 98.806 62.9014 98.767 62.8344 98.726C62.6984 98.644 62.5644 98.5575 62.4299 98.4645C62.3744 98.4275 62.3214 98.391 62.2679 98.3515C62.1359 98.2605 62.0084 98.1625 61.8829 98.062C61.8204 98.014 61.7599 97.966 61.7019 97.916C61.5114 97.759 61.3299 97.5925 61.1524 97.421C61.1059 97.375 61.0589 97.3265 61.0124 97.2805C60.9094 97.175 60.8089 97.0695 60.7104 96.959C60.7059 96.9545 60.7009 96.948 60.6964 96.9435C60.5979 96.8335 60.5014 96.7205 60.4099 96.606C60.3674 96.553 60.3229 96.5 60.2804 96.4445C60.2589 96.418 60.2404 96.389 60.2189 96.3625C60.1739 96.305 60.1314 96.2475 60.0889 96.1875C60.0819 96.1785 60.0749 96.17 60.0699 96.161C60.0204 96.0945 59.9729 96.026 59.9279 95.957C59.8759 95.8815 59.8259 95.806 59.7784 95.7285C59.7284 95.653 59.6809 95.575 59.6354 95.4975C59.5974 95.4355 59.5614 95.373 59.5254 95.3085C59.5014 95.2685 59.4799 95.2285 59.4584 95.1885C59.4274 95.133 59.3959 95.075 59.3669 95.017C59.3234 94.9345 59.2824 94.852 59.2414 94.7695C57.4684 90.0495 59.7119 84.706 64.3934 82.6985C64.9859 82.445 65.5894 82.2565 66.1989 82.129C66.5074 82.065 66.8204 82.017 67.1319 81.9825C68.4049 81.8485 69.6774 81.977 70.8754 82.339C71.1339 82.417 71.3904 82.5065 71.6424 82.6075C72.6189 82.9945 73.5349 83.544 74.3399 84.2395C75.1259 84.9155 75.8099 85.728 76.3504 86.658C76.4699 86.8625 76.5829 87.0745 76.6869 87.291C78.4594 92.0095 76.2159 97.353 71.5349 99.3585Z" fill="#F0F0F0"/>
<path d="M71.1299 95.061L71.7519 96.5115L69.9094 97.3015L69.3154 95.9165C67.9749 96.3985 66.5564 96.589 65.5649 96.4415L65.5944 93.768C66.6754 93.908 67.9654 93.7415 68.9714 93.3105C69.8469 92.935 70.0819 92.6175 69.9474 92.304C69.4544 91.154 64.7949 94.25 63.3329 90.8395C62.6999 89.363 63.2394 87.662 65.2534 86.4425L64.6429 85.018L66.4854 84.228L67.0849 85.6265C68.0914 85.3035 69.1384 85.1485 70.0624 85.247L70.0924 87.8795C68.9949 87.8085 68.0499 87.9505 67.2529 88.2925C66.3514 88.679 66.1759 89.0635 66.3104 89.377C66.7809 90.4745 71.4459 87.392 72.8914 90.7635C73.4969 92.1745 73.0039 93.8395 71.1299 95.061Z" fill="#E0E0E0"/>
<path d="M70.8694 94.601L71.4914 96.0515L69.6489 96.8415L69.0549 95.4565C67.7144 95.9385 66.2959 96.129 65.3044 95.9815L65.3339 93.308C66.4149 93.448 67.7049 93.2815 68.7109 92.85C69.5864 92.4745 69.8214 92.157 69.6869 91.8435C69.1939 90.6935 64.5344 93.7895 63.0724 90.379C62.4394 88.9025 62.9789 87.2015 64.9929 85.982L64.3824 84.5575L66.2249 83.7675L66.8244 85.1655C67.8304 84.8425 68.8779 84.6875 69.8019 84.786L69.8319 87.4185C68.7339 87.3475 67.7894 87.4895 66.9924 87.8315C66.0909 88.218 65.9154 88.6025 66.0499 88.9165C66.5204 90.014 71.1854 86.9315 72.6309 90.303C73.2364 91.715 72.7434 93.38 70.8694 94.601Z" fill="#F5F5F5"/>
<path d="M165.132 176.053V111.081H162.427L157.787 103.044L153.64 95.8609V82.5984H152.654V95.8609L148.507 103.044L143.867 111.081H141.162V176.053H165.132Z" fill="#F5F5F5"/>
<path d="M56.6951 176.053V111.081H53.9906L49.3506 103.044L45.2031 95.8609V82.5984H44.2176V95.8609L40.0701 103.044L35.4301 111.081H32.7256V176.053H56.6951Z" fill="#F5F5F5"/>
<path d="M134.101 105.457H110.78V176.053H134.101V105.457Z" fill="#F5F5F5"/>
<path d="M225.669 97.6905H198.157V176.053H225.669V97.6905Z" fill="#F5F5F5"/>
<path d="M36.1646 94.5594H25.4611V176.053H36.1646V94.5594Z" fill="#F5F5F5"/>
<path d="M93.2516 176.053V106.781L65.7406 118.085V176.053H93.2516Z" fill="#F5F5F5"/>
<path d="M199.183 176.053V94.4305H196.301V88.4115L194.176 87.4485V71.2775H193.152V86.9845L173.295 77.986V94.4305H171.314V176.053H199.183Z" fill="#F5F5F5"/>
<path d="M113.811 111.081H89.8411V176.053H113.811V111.081Z" fill="#E6E6E6"/>
<path d="M96.265 115.055H92.546V116.8H96.265V115.055Z" fill="#F5F5F5"/>
<path d="M103.686 115.055H99.9666V116.8H103.686V115.055Z" fill="#F5F5F5"/>
<path d="M111.106 115.055H107.387V116.8H111.106V115.055Z" fill="#F5F5F5"/>
<path d="M96.265 119.372H92.546V121.117H96.265V119.372Z" fill="#F5F5F5"/>
<path d="M103.686 119.372H99.9666V121.117H103.686V119.372Z" fill="#F5F5F5"/>
<path d="M111.106 119.372H107.387V121.117H111.106V119.372Z" fill="#F5F5F5"/>
<path d="M96.265 123.688H92.546V125.433H96.265V123.688Z" fill="#F5F5F5"/>
<path d="M103.686 123.688H99.9666V125.433H103.686V123.688Z" fill="#F5F5F5"/>
<path d="M111.106 123.688H107.387V125.433H111.106V123.688Z" fill="#F5F5F5"/>
<path d="M96.265 128.005H92.546V129.75H96.265V128.005Z" fill="#F5F5F5"/>
<path d="M103.686 128.005H99.9666V129.75H103.686V128.005Z" fill="#F5F5F5"/>
<path d="M111.106 128.005H107.387V129.75H111.106V128.005Z" fill="#F5F5F5"/>
<path d="M96.265 132.322H92.546V134.067H96.265V132.322Z" fill="#F5F5F5"/>
<path d="M103.686 132.322H99.9666V134.067H103.686V132.322Z" fill="#F5F5F5"/>
<path d="M111.106 132.322H107.387V134.067H111.106V132.322Z" fill="#F5F5F5"/>
<path d="M96.265 136.639H92.546V138.384H96.265V136.639Z" fill="#F5F5F5"/>
<path d="M103.686 136.639H99.9666V138.384H103.686V136.639Z" fill="#F5F5F5"/>
<path d="M111.106 136.639H107.387V138.384H111.106V136.639Z" fill="#F5F5F5"/>
<path d="M96.265 140.956H92.546V142.701H96.265V140.956Z" fill="#F5F5F5"/>
<path d="M103.686 140.956H99.9666V142.701H103.686V140.956Z" fill="#F5F5F5"/>
<path d="M111.106 140.956H107.387V142.701H111.106V140.956Z" fill="#F5F5F5"/>
<path d="M96.265 145.273H92.546V147.018H96.265V145.273Z" fill="#F5F5F5"/>
<path d="M103.686 145.273H99.9666V147.018H103.686V145.273Z" fill="#F5F5F5"/>
<path d="M111.106 145.273H107.387V147.018H111.106V145.273Z" fill="#F5F5F5"/>
<path d="M96.265 149.59H92.546V151.335H96.265V149.59Z" fill="#F5F5F5"/>
<path d="M103.686 149.59H99.9666V151.335H103.686V149.59Z" fill="#F5F5F5"/>
<path d="M111.106 149.59H107.387V151.335H111.106V149.59Z" fill="#F5F5F5"/>
<path d="M96.265 153.907H92.546V155.652H96.265V153.907Z" fill="#F5F5F5"/>
<path d="M103.686 153.907H99.9666V155.652H103.686V153.907Z" fill="#F5F5F5"/>
<path d="M111.106 153.907H107.387V155.652H111.106V153.907Z" fill="#F5F5F5"/>
<path d="M96.265 158.224H92.546V159.969H96.265V158.224Z" fill="#F5F5F5"/>
<path d="M103.686 158.224H99.9666V159.969H103.686V158.224Z" fill="#F5F5F5"/>
<path d="M111.106 158.224H107.387V159.969H111.106V158.224Z" fill="#F5F5F5"/>
<path d="M96.265 162.541H92.546V164.286H96.265V162.541Z" fill="#F5F5F5"/>
<path d="M103.686 162.541H99.9666V164.286H103.686V162.541Z" fill="#F5F5F5"/>
<path d="M111.106 162.541H107.387V164.286H111.106V162.541Z" fill="#F5F5F5"/>
<path d="M49.4306 111.081H25.4611V176.053H49.4306V111.081Z" fill="#E6E6E6"/>
<path d="M31.8845 115.055H28.1655V116.8H31.8845V115.055Z" fill="#F5F5F5"/>
<path d="M39.3051 115.055H35.5861V116.8H39.3051V115.055Z" fill="#F5F5F5"/>
<path d="M46.7261 115.055H43.0071V116.8H46.7261V115.055Z" fill="#F5F5F5"/>
<path d="M31.8845 119.372H28.1655V121.117H31.8845V119.372Z" fill="#F5F5F5"/>
<path d="M39.3051 119.372H35.5861V121.117H39.3051V119.372Z" fill="#F5F5F5"/>
<path d="M46.7261 119.372H43.0071V121.117H46.7261V119.372Z" fill="#F5F5F5"/>
<path d="M31.8845 123.688H28.1655V125.433H31.8845V123.688Z" fill="#F5F5F5"/>
<path d="M39.3051 123.688H35.5861V125.433H39.3051V123.688Z" fill="#F5F5F5"/>
<path d="M46.7261 123.688H43.0071V125.433H46.7261V123.688Z" fill="#F5F5F5"/>
<path d="M31.8845 128.005H28.1655V129.75H31.8845V128.005Z" fill="#F5F5F5"/>
<path d="M39.3051 128.005H35.5861V129.75H39.3051V128.005Z" fill="#F5F5F5"/>
<path d="M46.7261 128.005H43.0071V129.75H46.7261V128.005Z" fill="#F5F5F5"/>
<path d="M31.8845 132.322H28.1655V134.067H31.8845V132.322Z" fill="#F5F5F5"/>
<path d="M39.3051 132.322H35.5861V134.067H39.3051V132.322Z" fill="#F5F5F5"/>
<path d="M46.7261 132.322H43.0071V134.067H46.7261V132.322Z" fill="#F5F5F5"/>
<path d="M31.8845 136.639H28.1655V138.384H31.8845V136.639Z" fill="#F5F5F5"/>
<path d="M39.3051 136.639H35.5861V138.384H39.3051V136.639Z" fill="#F5F5F5"/>
<path d="M46.7261 136.639H43.0071V138.384H46.7261V136.639Z" fill="#F5F5F5"/>
<path d="M31.8845 140.956H28.1655V142.701H31.8845V140.956Z" fill="#F5F5F5"/>
<path d="M39.3051 140.956H35.5861V142.701H39.3051V140.956Z" fill="#F5F5F5"/>
<path d="M46.7261 140.956H43.0071V142.701H46.7261V140.956Z" fill="#F5F5F5"/>
<path d="M31.8845 145.273H28.1655V147.018H31.8845V145.273Z" fill="#F5F5F5"/>
<path d="M39.3051 145.273H35.5861V147.018H39.3051V145.273Z" fill="#F5F5F5"/>
<path d="M46.7261 145.273H43.0071V147.018H46.7261V145.273Z" fill="#F5F5F5"/>
<path d="M31.8845 149.59H28.1655V151.335H31.8845V149.59Z" fill="#F5F5F5"/>
<path d="M39.3051 149.59H35.5861V151.335H39.3051V149.59Z" fill="#F5F5F5"/>
<path d="M46.7261 149.59H43.0071V151.335H46.7261V149.59Z" fill="#F5F5F5"/>
<path d="M31.8845 153.907H28.1655V155.652H31.8845V153.907Z" fill="#F5F5F5"/>
<path d="M39.3051 153.907H35.5861V155.652H39.3051V153.907Z" fill="#F5F5F5"/>
<path d="M46.7261 153.907H43.0071V155.652H46.7261V153.907Z" fill="#F5F5F5"/>
<path d="M31.8845 158.224H28.1655V159.969H31.8845V158.224Z" fill="#F5F5F5"/>
<path d="M39.3051 158.224H35.5861V159.969H39.3051V158.224Z" fill="#F5F5F5"/>
<path d="M46.7261 158.224H43.0071V159.969H46.7261V158.224Z" fill="#F5F5F5"/>
<path d="M31.8845 162.541H28.1655V164.286H31.8845V162.541Z" fill="#F5F5F5"/>
<path d="M39.3051 162.541H35.5861V164.286H39.3051V162.541Z" fill="#F5F5F5"/>
<path d="M46.7261 162.541H43.0071V164.286H46.7261V162.541Z" fill="#F5F5F5"/>
<path d="M101.826 111.081H92.546L97.186 103.044L101.826 95.0074L106.466 103.044L111.106 111.081H101.826Z" fill="#E6E6E6"/>
<path d="M102.319 82.5984H101.333V100.92H102.319V82.5984Z" fill="#E6E6E6"/>
<path d="M140.313 75.2695H139.327V93.5915H140.313V75.2695Z" fill="#E6E6E6"/>
<path d="M145.131 97.5525H118.31V176.053H145.131V97.5525Z" fill="#E6E6E6"/>
<path d="M126.159 102.464H122.44V104.209H126.159V102.464Z" fill="#F5F5F5"/>
<path d="M133.58 102.464H129.861V104.209H133.58V102.464Z" fill="#F5F5F5"/>
<path d="M141.001 102.464H137.282V104.209H141.001V102.464Z" fill="#F5F5F5"/>
<path d="M126.159 106.781H122.44V108.526H126.159V106.781Z" fill="#F5F5F5"/>
<path d="M133.58 106.781H129.861V108.526H133.58V106.781Z" fill="#F5F5F5"/>
<path d="M141.001 106.781H137.281V108.526H141.001V106.781Z" fill="#F5F5F5"/>
<path d="M126.159 111.099H122.44V112.844H126.159V111.099Z" fill="#F5F5F5"/>
<path d="M133.58 111.099H129.861V112.844H133.58V111.099Z" fill="#F5F5F5"/>
<path d="M141.001 111.099H137.281V112.844H141.001V111.099Z" fill="#F5F5F5"/>
<path d="M126.159 115.415H122.44V117.16H126.159V115.415Z" fill="#F5F5F5"/>
<path d="M133.58 115.415H129.861V117.16H133.58V115.415Z" fill="#F5F5F5"/>
<path d="M141.001 115.415H137.281V117.16H141.001V115.415Z" fill="#F5F5F5"/>
<path d="M126.159 119.732H122.44V121.477H126.159V119.732Z" fill="#F5F5F5"/>
<path d="M133.58 119.732H129.861V121.477H133.58V119.732Z" fill="#F5F5F5"/>
<path d="M141.001 119.732H137.281V121.477H141.001V119.732Z" fill="#F5F5F5"/>
<path d="M126.159 124.049H122.44V125.794H126.159V124.049Z" fill="#F5F5F5"/>
<path d="M133.58 124.049H129.861V125.794H133.58V124.049Z" fill="#F5F5F5"/>
<path d="M141.001 124.049H137.281V125.794H141.001V124.049Z" fill="#F5F5F5"/>
<path d="M126.159 128.366H122.44V130.111H126.159V128.366Z" fill="#F5F5F5"/>
<path d="M133.58 128.366H129.861V130.111H133.58V128.366Z" fill="#F5F5F5"/>
<path d="M141.001 128.366H137.281V130.111H141.001V128.366Z" fill="#F5F5F5"/>
<path d="M126.159 132.683H122.44V134.428H126.159V132.683Z" fill="#F5F5F5"/>
<path d="M133.58 132.683H129.861V134.428H133.58V132.683Z" fill="#F5F5F5"/>
<path d="M141.001 132.683H137.281V134.428H141.001V132.683Z" fill="#F5F5F5"/>
<path d="M126.159 137H122.44V138.745H126.159V137Z" fill="#F5F5F5"/>
<path d="M133.58 137H129.861V138.745H133.58V137Z" fill="#F5F5F5"/>
<path d="M141.001 137H137.281V138.745H141.001V137Z" fill="#F5F5F5"/>
<path d="M126.159 141.317H122.44V143.062H126.159V141.317Z" fill="#F5F5F5"/>
<path d="M133.58 141.317H129.861V143.062H133.58V141.317Z" fill="#F5F5F5"/>
<path d="M141.001 141.317H137.281V143.062H141.001V141.317Z" fill="#F5F5F5"/>
<path d="M126.159 145.634H122.44V147.379H126.159V145.634Z" fill="#F5F5F5"/>
<path d="M133.58 145.634H129.861V147.379H133.58V145.634Z" fill="#F5F5F5"/>
<path d="M141.001 145.634H137.281V147.379H141.001V145.634Z" fill="#F5F5F5"/>
<path d="M126.159 149.951H122.44V151.696H126.159V149.951Z" fill="#F5F5F5"/>
<path d="M133.58 149.951H129.861V151.696H133.58V149.951Z" fill="#F5F5F5"/>
<path d="M141.001 149.951H137.281V151.696H141.001V149.951Z" fill="#F5F5F5"/>
<path d="M126.159 153.818H122.44V155.563H126.159V153.818Z" fill="#F5F5F5"/>
<path d="M133.58 153.818H129.861V155.563H133.58V153.818Z" fill="#F5F5F5"/>
<path d="M141.001 153.818H137.282V155.563H141.001V153.818Z" fill="#F5F5F5"/>
<path d="M126.159 158.135H122.44V159.88H126.159V158.135Z" fill="#F5F5F5"/>
<path d="M133.58 158.135H129.861V159.88H133.58V158.135Z" fill="#F5F5F5"/>
<path d="M141.001 158.135H137.281V159.88H141.001V158.135Z" fill="#F5F5F5"/>
<path d="M142.357 105.457H120.217V81.726L142.357 91.7595V105.457Z" fill="#E6E6E6"/>
<path d="M178.048 115.054H152.354V176.053H178.048V115.054Z" fill="#E6E6E6"/>
<path d="M163.937 112.968H154.243V121.241H163.937V112.968Z" fill="#E6E6E6"/>
<path d="M157.714 112.358H155.115V119.786H157.714V112.358Z" fill="#E6E6E6"/>
<path d="M163.123 112.358H160.524V119.786H163.123V112.358Z" fill="#E6E6E6"/>
<path d="M176.405 112.997H170.633V118.768H176.405V112.997Z" fill="#E6E6E6"/>
<path d="M159.844 120.244H156.125V121.989H159.844V120.244Z" fill="#F5F5F5"/>
<path d="M167.266 120.244H163.546V121.989H167.266V120.244Z" fill="#F5F5F5"/>
<path d="M174.686 120.244H170.967V121.989H174.686V120.244Z" fill="#F5F5F5"/>
<path d="M159.844 124.561H156.125V126.306H159.844V124.561Z" fill="#F5F5F5"/>
<path d="M167.266 124.561H163.546V126.306H167.266V124.561Z" fill="#F5F5F5"/>
<path d="M174.686 124.561H170.967V126.306H174.686V124.561Z" fill="#F5F5F5"/>
<path d="M159.844 128.877H156.125V130.622H159.844V128.877Z" fill="#F5F5F5"/>
<path d="M167.266 128.877H163.546V130.622H167.266V128.877Z" fill="#F5F5F5"/>
<path d="M174.686 128.877H170.967V130.622H174.686V128.877Z" fill="#F5F5F5"/>
<path d="M159.844 133.194H156.125V134.939H159.844V133.194Z" fill="#F5F5F5"/>
<path d="M167.266 133.194H163.546V134.939H167.266V133.194Z" fill="#F5F5F5"/>
<path d="M174.686 133.194H170.967V134.939H174.686V133.194Z" fill="#F5F5F5"/>
<path d="M159.844 137.511H156.125V139.256H159.844V137.511Z" fill="#F5F5F5"/>
<path d="M167.266 137.511H163.546V139.256H167.266V137.511Z" fill="#F5F5F5"/>
<path d="M174.686 137.511H170.967V139.256H174.686V137.511Z" fill="#F5F5F5"/>
<path d="M159.844 141.828H156.125V143.573H159.844V141.828Z" fill="#F5F5F5"/>
<path d="M167.266 141.828H163.546V143.573H167.266V141.828Z" fill="#F5F5F5"/>
<path d="M174.686 141.828H170.967V143.573H174.686V141.828Z" fill="#F5F5F5"/>
<path d="M159.844 146.145H156.125V147.89H159.844V146.145Z" fill="#F5F5F5"/>
<path d="M167.266 146.145H163.546V147.89H167.266V146.145Z" fill="#F5F5F5"/>
<path d="M174.686 146.145H170.967V147.89H174.686V146.145Z" fill="#F5F5F5"/>
<path d="M159.844 150.462H156.125V152.207H159.844V150.462Z" fill="#F5F5F5"/>
<path d="M167.266 150.462H163.546V152.207H167.266V150.462Z" fill="#F5F5F5"/>
<path d="M174.686 150.462H170.967V152.207H174.686V150.462Z" fill="#F5F5F5"/>
<path d="M159.844 154.779H156.125V156.524H159.844V154.779Z" fill="#F5F5F5"/>
<path d="M167.266 154.779H163.546V156.524H167.266V154.779Z" fill="#F5F5F5"/>
<path d="M174.686 154.779H170.967V156.524H174.686V154.779Z" fill="#F5F5F5"/>
<path d="M159.844 159.096H156.125V160.841H159.844V159.096Z" fill="#F5F5F5"/>
<path d="M167.266 159.096H163.546V160.841H167.266V159.096Z" fill="#F5F5F5"/>
<path d="M174.686 159.096H170.967V160.841H174.686V159.096Z" fill="#F5F5F5"/>
<path d="M159.844 163.413H156.125V165.158H159.844V163.413Z" fill="#F5F5F5"/>
<path d="M167.266 163.413H163.546V165.158H167.266V163.413Z" fill="#F5F5F5"/>
<path d="M174.686 163.413H170.967V165.158H174.686V163.413Z" fill="#F5F5F5"/>
<path d="M159.844 167.73H156.125V169.475H159.844V167.73Z" fill="#F5F5F5"/>
<path d="M167.266 167.73H163.546V169.475H167.266V167.73Z" fill="#F5F5F5"/>
<path d="M174.686 167.73H170.967V169.475H174.686V167.73Z" fill="#F5F5F5"/>
<path d="M78.5746 115.054H52.8806V176.053H78.5746V115.054Z" fill="#E6E6E6"/>
<path d="M64.4642 112.968H54.7697V121.241H64.4642V112.968Z" fill="#E6E6E6"/>
<path d="M58.2411 112.358H55.6421V119.786H58.2411V112.358Z" fill="#E6E6E6"/>
<path d="M63.6506 112.358H61.0516V119.786H63.6506V112.358Z" fill="#E6E6E6"/>
<path d="M76.9321 112.997H71.1606V118.768H76.9321V112.997Z" fill="#E6E6E6"/>
<path d="M60.3716 120.244H56.6526V121.989H60.3716V120.244Z" fill="#F5F5F5"/>
<path d="M67.7921 120.244H64.0731V121.989H67.7921V120.244Z" fill="#F5F5F5"/>
<path d="M75.2125 120.244H71.4935V121.989H75.2125V120.244Z" fill="#F5F5F5"/>
<path d="M60.3716 124.561H56.6526V126.306H60.3716V124.561Z" fill="#F5F5F5"/>
<path d="M67.7921 124.561H64.0731V126.306H67.7921V124.561Z" fill="#F5F5F5"/>
<path d="M75.2125 124.561H71.4935V126.306H75.2125V124.561Z" fill="#F5F5F5"/>
<path d="M60.3716 128.877H56.6526V130.622H60.3716V128.877Z" fill="#F5F5F5"/>
<path d="M67.7921 128.877H64.0731V130.622H67.7921V128.877Z" fill="#F5F5F5"/>
<path d="M75.2125 128.877H71.4935V130.622H75.2125V128.877Z" fill="#F5F5F5"/>
<path d="M60.3716 133.194H56.6526V134.939H60.3716V133.194Z" fill="#F5F5F5"/>
<path d="M67.7921 133.194H64.0731V134.939H67.7921V133.194Z" fill="#F5F5F5"/>
<path d="M75.2125 133.194H71.4935V134.939H75.2125V133.194Z" fill="#F5F5F5"/>
<path d="M60.3716 137.511H56.6526V139.256H60.3716V137.511Z" fill="#F5F5F5"/>
<path d="M67.7921 137.511H64.0731V139.256H67.7921V137.511Z" fill="#F5F5F5"/>
<path d="M75.2125 137.511H71.4935V139.256H75.2125V137.511Z" fill="#F5F5F5"/>
<path d="M60.3716 141.828H56.6526V143.573H60.3716V141.828Z" fill="#F5F5F5"/>
<path d="M67.7921 141.828H64.0731V143.573H67.7921V141.828Z" fill="#F5F5F5"/>
<path d="M75.2125 141.828H71.4935V143.573H75.2125V141.828Z" fill="#F5F5F5"/>
<path d="M60.3716 146.145H56.6526V147.89H60.3716V146.145Z" fill="#F5F5F5"/>
<path d="M67.7921 146.145H64.0731V147.89H67.7921V146.145Z" fill="#F5F5F5"/>
<path d="M75.2125 146.145H71.4935V147.89H75.2125V146.145Z" fill="#F5F5F5"/>
<path d="M60.3716 150.462H56.6526V152.207H60.3716V150.462Z" fill="#F5F5F5"/>
<path d="M67.7921 150.462H64.0731V152.207H67.7921V150.462Z" fill="#F5F5F5"/>
<path d="M75.2125 150.462H71.4935V152.207H75.2125V150.462Z" fill="#F5F5F5"/>
<path d="M60.3716 154.779H56.6526V156.524H60.3716V154.779Z" fill="#F5F5F5"/>
<path d="M67.7921 154.779H64.0731V156.524H67.7921V154.779Z" fill="#F5F5F5"/>
<path d="M75.2125 154.779H71.4935V156.524H75.2125V154.779Z" fill="#F5F5F5"/>
<path d="M60.3716 159.096H56.6526V160.841H60.3716V159.096Z" fill="#F5F5F5"/>
<path d="M67.7921 159.096H64.0731V160.841H67.7921V159.096Z" fill="#F5F5F5"/>
<path d="M75.2125 159.096H71.4935V160.841H75.2125V159.096Z" fill="#F5F5F5"/>
<path d="M60.3716 163.413H56.6526V165.158H60.3716V163.413Z" fill="#F5F5F5"/>
<path d="M67.7921 163.413H64.0731V165.158H67.7921V163.413Z" fill="#F5F5F5"/>
<path d="M75.2125 163.413H71.4935V165.158H75.2125V163.413Z" fill="#F5F5F5"/>
<path d="M60.3716 167.73H56.6526V169.475H60.3716V167.73Z" fill="#F5F5F5"/>
<path d="M67.7921 167.73H64.0731V169.475H67.7921V167.73Z" fill="#F5F5F5"/>
<path d="M75.2125 167.73H71.4935V169.475H75.2125V167.73Z" fill="#F5F5F5"/>
<path d="M225.669 107.078H185.68V176.053H225.669V107.078Z" fill="#E6E6E6"/>
<path d="M193.474 112.896H189.755V114.641H193.474V112.896Z" fill="#F5F5F5"/>
<path d="M200.894 112.896H197.175V114.641H200.894V112.896Z" fill="#F5F5F5"/>
<path d="M208.314 112.896H204.595V114.641H208.314V112.896Z" fill="#F5F5F5"/>
<path d="M193.474 117.213H189.755V118.958H193.474V117.213Z" fill="#F5F5F5"/>
<path d="M200.894 117.213H197.175V118.958H200.894V117.213Z" fill="#F5F5F5"/>
<path d="M208.314 117.213H204.595V118.958H208.314V117.213Z" fill="#F5F5F5"/>
<path d="M193.474 121.53H189.755V123.275H193.474V121.53Z" fill="#F5F5F5"/>
<path d="M200.894 121.53H197.175V123.275H200.894V121.53Z" fill="#F5F5F5"/>
<path d="M208.314 121.53H204.595V123.275H208.314V121.53Z" fill="#F5F5F5"/>
<path d="M193.474 125.846H189.755V127.591H193.474V125.846Z" fill="#F5F5F5"/>
<path d="M200.894 125.846H197.175V127.591H200.894V125.846Z" fill="#F5F5F5"/>
<path d="M208.314 125.846H204.595V127.591H208.314V125.846Z" fill="#F5F5F5"/>
<path d="M193.474 130.164H189.755V131.909H193.474V130.164Z" fill="#F5F5F5"/>
<path d="M200.894 130.164H197.175V131.909H200.894V130.164Z" fill="#F5F5F5"/>
<path d="M208.314 130.164H204.595V131.909H208.314V130.164Z" fill="#F5F5F5"/>
<path d="M193.474 134.48H189.755V136.225H193.474V134.48Z" fill="#F5F5F5"/>
<path d="M200.894 134.48H197.175V136.225H200.894V134.48Z" fill="#F5F5F5"/>
<path d="M208.314 134.48H204.595V136.225H208.314V134.48Z" fill="#F5F5F5"/>
<path d="M193.474 138.797H189.755V140.542H193.474V138.797Z" fill="#F5F5F5"/>
<path d="M200.894 138.797H197.175V140.542H200.894V138.797Z" fill="#F5F5F5"/>
<path d="M208.314 138.797H204.595V140.542H208.314V138.797Z" fill="#F5F5F5"/>
<path d="M193.474 143.115H189.755V144.859H193.474V143.115Z" fill="#F5F5F5"/>
<path d="M200.894 143.115H197.175V144.859H200.894V143.115Z" fill="#F5F5F5"/>
<path d="M208.314 143.115H204.595V144.859H208.314V143.115Z" fill="#F5F5F5"/>
<path d="M193.474 147.432H189.755V149.177H193.474V147.432Z" fill="#F5F5F5"/>
<path d="M200.894 147.432H197.175V149.177H200.894V147.432Z" fill="#F5F5F5"/>
<path d="M208.314 147.432H204.595V149.177H208.314V147.432Z" fill="#F5F5F5"/>
<path d="M193.474 151.748H189.755V153.493H193.474V151.748Z" fill="#F5F5F5"/>
<path d="M200.894 151.748H197.175V153.493H200.894V151.748Z" fill="#F5F5F5"/>
<path d="M208.314 151.748H204.595V153.493H208.314V151.748Z" fill="#F5F5F5"/>
<path d="M193.474 156.065H189.755V157.81H193.474V156.065Z" fill="#F5F5F5"/>
<path d="M200.894 156.065H197.175V157.81H200.894V156.065Z" fill="#F5F5F5"/>
<path d="M208.314 156.065H204.595V157.81H208.314V156.065Z" fill="#F5F5F5"/>
<path d="M193.474 160.383H189.755V162.128H193.474V160.383Z" fill="#F5F5F5"/>
<path d="M200.894 160.383H197.175V162.128H200.894V160.383Z" fill="#F5F5F5"/>
<path d="M208.314 160.383H204.595V162.128H208.314V160.383Z" fill="#F5F5F5"/>
<path d="M215.394 112.896H211.674V114.641H215.394V112.896Z" fill="#F5F5F5"/>
<path d="M222.814 112.896H219.095V114.641H222.814V112.896Z" fill="#F5F5F5"/>
<path d="M215.394 117.213H211.674V118.958H215.394V117.213Z" fill="#F5F5F5"/>
<path d="M222.814 117.213H219.095V118.958H222.814V117.213Z" fill="#F5F5F5"/>
<path d="M215.394 121.53H211.674V123.275H215.394V121.53Z" fill="#F5F5F5"/>
<path d="M222.814 121.53H219.095V123.275H222.814V121.53Z" fill="#F5F5F5"/>
<path d="M215.394 125.846H211.674V127.591H215.394V125.846Z" fill="#F5F5F5"/>
<path d="M222.814 125.846H219.095V127.591H222.814V125.846Z" fill="#F5F5F5"/>
<path d="M215.394 130.164H211.674V131.909H215.394V130.164Z" fill="#F5F5F5"/>
<path d="M222.814 130.164H219.095V131.909H222.814V130.164Z" fill="#F5F5F5"/>
<path d="M215.394 134.48H211.674V136.225H215.394V134.48Z" fill="#F5F5F5"/>
<path d="M222.814 134.48H219.095V136.225H222.814V134.48Z" fill="#F5F5F5"/>
<path d="M215.394 138.797H211.674V140.542H215.394V138.797Z" fill="#F5F5F5"/>
<path d="M222.814 138.797H219.095V140.542H222.814V138.797Z" fill="#F5F5F5"/>
<path d="M215.394 143.115H211.674V144.859H215.394V143.115Z" fill="#F5F5F5"/>
<path d="M222.814 143.115H219.095V144.859H222.814V143.115Z" fill="#F5F5F5"/>
<path d="M215.394 147.432H211.674V149.177H215.394V147.432Z" fill="#F5F5F5"/>
<path d="M222.814 147.432H219.095V149.177H222.814V147.432Z" fill="#F5F5F5"/>
<path d="M215.394 151.748H211.674V153.493H215.394V151.748Z" fill="#F5F5F5"/>
<path d="M222.814 151.748H219.095V153.493H222.814V151.748Z" fill="#F5F5F5"/>
<path d="M215.394 156.065H211.674V157.81H215.394V156.065Z" fill="#F5F5F5"/>
<path d="M222.814 156.065H219.095V157.81H222.814V156.065Z" fill="#F5F5F5"/>
<path d="M215.394 160.383H211.674V162.128H215.394V160.383Z" fill="#F5F5F5"/>
<path d="M222.814 160.383H219.095V162.128H222.814V160.383Z" fill="#F5F5F5"/>
<path d="M220.954 197.812C220.954 197.812 221.812 192.312 223.5 191.625C225.187 190.937 223.187 195.875 223.187 195.875C223.187 195.875 225.937 193.25 227.562 193.75C229.187 194.25 223.437 197.812 223.437 197.812H220.954Z" fill="#E6E6E6"/>
<path d="M161.823 205.607C161.823 205.607 163.675 198.02 168.654 196.538C173.634 195.056 177.464 198.253 177.464 198.253C177.464 198.253 178.673 195.212 181.516 194.9C184.359 194.588 186.81 196.693 186.81 196.693C186.81 196.693 189.108 187.489 196.922 186.865C204.736 186.241 207.647 194.9 207.647 194.9C207.647 194.9 209.176 192.914 212.931 193.712C216.687 194.51 217.97 198.331 217.97 198.331C217.97 198.331 222.815 195.534 227.335 197.791C231.855 200.047 232.851 205.607 232.851 205.607H161.823V205.607Z" fill="#F0F0F0"/>
<path d="M124.244 220.333C182.786 220.333 230.244 218.974 230.244 217.297C230.244 215.621 182.786 214.261 124.244 214.261C65.7013 214.261 18.2435 215.621 18.2435 217.297C18.2435 218.974 65.7013 220.333 124.244 220.333Z" fill="#F0F0F0"/>
<path d="M47.553 212.004C48.491 212.551 50.8805 214.287 52.6175 215.575H58.5275C57.6585 214.059 56.613 212.371 55.424 210.732C55.423 210.731 55.4235 210.731 55.4225 210.73C52.223 206.322 48.04 202.318 43.8115 203.286C41.11 203.903 40.23 207.74 47.553 212.004Z" fill="#407BFF"/>
<path opacity="0.2" d="M47.553 212.004C48.491 212.551 50.8805 214.287 52.6175 215.575H58.5275C57.6585 214.059 56.613 212.371 55.424 210.732C55.423 210.731 55.4235 210.731 55.4225 210.73C52.223 206.322 48.04 202.318 43.8115 203.286C41.11 203.903 40.23 207.74 47.553 212.004Z" fill="black"/>
<path d="M52.493 210.73C52.494 210.731 52.4935 210.732 52.4945 210.733C53.324 212.384 54.058 214.019 54.7055 215.576H60.8945C60.1555 206.266 57.65 192.512 49.337 190.655C45.4215 189.779 41.881 194.247 48.7955 204.38C50.184 206.416 51.416 208.583 52.493 210.73Z" fill="#407BFF"/>
<path d="M212.131 212.004C211.193 212.551 208.803 214.287 207.066 215.575H201.156C202.025 214.059 203.071 212.371 204.26 210.732C204.261 210.731 204.261 210.731 204.262 210.73C207.461 206.322 211.644 202.318 215.872 203.286C218.574 203.903 219.454 207.74 212.131 212.004Z" fill="#407BFF"/>
<path d="M207.191 210.73C207.191 210.731 207.191 210.732 207.19 210.733C206.36 212.384 205.626 214.019 204.979 215.576H198.79C199.529 206.266 202.035 192.512 210.348 190.655C214.263 189.779 217.804 194.247 210.889 204.38C209.5 206.416 208.268 208.583 207.191 210.73Z" fill="#407BFF"/>
<path d="M81.511 185.449C81.511 185.449 93.322 178.447 87.8085 174.205C84.094 171.348 79.66 179.949 81.511 185.449Z" fill="#407BFF"/>
<path d="M77.1699 184.407C77.1699 184.407 62.1735 185.142 64.926 179.298C66.898 175.112 75.4784 178.858 77.1699 184.407Z" fill="#407BFF"/>
<path d="M77.601 179.663C77.601 179.663 80.4205 165.06 73.6455 166.546C68.8235 167.603 72.247 177.297 77.601 179.663Z" fill="#407BFF"/>
<path d="M87.0885 203.104C87.14 203.135 87.2065 203.137 87.2615 203.105C87.3425 203.057 87.369 202.953 87.3215 202.872C84.1605 197.506 80.818 188.563 78.571 182.005C76.135 174.895 74.426 168.982 74.409 168.923C74.383 168.833 74.289 168.781 74.199 168.807C74.109 168.833 74.057 168.927 74.083 169.017C74.1 169.076 75.811 174.998 78.25 182.115C80.502 188.688 83.8535 197.654 87.029 203.045C87.044 203.07 87.065 203.09 87.0885 203.104Z" fill="#263238"/>
<path d="M82.284 192.915C82.353 192.956 82.443 192.943 82.498 192.881C82.56 192.81 82.5535 192.703 82.483 192.641C82.4445 192.608 78.62 189.259 75.294 188.223C75.2045 188.195 75.109 188.245 75.0815 188.334C75.0535 188.424 75.1035 188.519 75.193 188.547C78.4495 189.561 82.2205 192.863 82.2585 192.896C82.266 192.903 82.275 192.909 82.284 192.915Z" fill="#263238"/>
<path d="M76.0609 189.334C76.7709 188.835 76.9324 187.858 76.4214 187.151C75.9974 186.565 75.2444 186.349 74.5944 186.578C74.4609 186.624 74.3319 186.69 74.2109 186.775C73.5009 187.274 73.3394 188.251 73.8499 188.958C73.8914 189.015 73.9354 189.069 73.9829 189.119C74.5199 189.688 75.4084 189.793 76.0609 189.334Z" fill="#407BFF"/>
<g opacity="0.5">
<path d="M76.0609 189.334C76.7709 188.835 76.9324 187.858 76.4214 187.151C75.9974 186.565 75.2444 186.349 74.5944 186.578C74.4609 186.624 74.3319 186.69 74.2109 186.775C73.5009 187.274 73.3394 188.251 73.8499 188.958C73.8914 189.015 73.9354 189.069 73.9829 189.119C74.5199 189.688 75.4084 189.793 76.0609 189.334Z" fill="white"/>
</g>
<path d="M83.703 196.296C83.7335 196.314 83.7705 196.323 83.8085 196.319C83.9015 196.308 83.9685 196.224 83.9585 196.131C83.667 193.543 87.3575 188.45 87.3945 188.398C87.4495 188.322 87.433 188.216 87.3575 188.161C87.282 188.106 87.1755 188.122 87.12 188.198C86.9645 188.411 83.3145 193.45 83.6205 196.169C83.627 196.224 83.6585 196.27 83.703 196.296Z" fill="#263238"/>
<path d="M87.9184 189.396C87.0574 189.542 86.2339 188.97 86.0789 188.117C85.9504 187.41 86.3219 186.732 86.9434 186.438C87.0709 186.378 87.2094 186.333 87.3564 186.308C88.2174 186.162 89.0409 186.735 89.1959 187.588C89.2084 187.657 89.2164 187.726 89.2194 187.794C89.2564 188.568 88.7094 189.262 87.9184 189.396Z" fill="#407BFF"/>
<g opacity="0.5">
<path d="M87.9184 189.396C87.0574 189.542 86.2339 188.97 86.0789 188.117C85.9504 187.41 86.3219 186.732 86.9434 186.438C87.0709 186.378 87.2094 186.333 87.3564 186.308C88.2174 186.162 89.0409 186.735 89.1959 187.588C89.2084 187.657 89.2164 187.726 89.2194 187.794C89.2564 188.568 88.7094 189.262 87.9184 189.396Z" fill="white"/>
</g>
<path d="M80.4705 188.23C80.4855 188.239 80.5025 188.246 80.5205 188.25C80.612 188.27 80.703 188.212 80.723 188.12C81.7535 183.456 86.2465 178.034 86.292 177.98C86.352 177.908 86.3425 177.801 86.2705 177.74C86.1985 177.68 86.0915 177.69 86.0315 177.762C86.02 177.775 84.872 179.155 83.6115 181.1C82.4455 182.898 80.94 185.563 80.3915 188.046C80.3755 188.12 80.4095 188.193 80.4705 188.23Z" fill="#263238"/>
<path d="M80.0284 187.028C80.0899 187.065 80.1699 187.06 80.2269 187.01C80.2974 186.949 80.3049 186.841 80.2434 186.771C78.9269 185.262 76.6554 183.688 73.4919 182.092C71.1424 180.906 69.1499 180.151 69.1304 180.144C69.0429 180.111 68.9444 180.155 68.9114 180.243C68.8784 180.331 68.9229 180.428 69.0104 180.462C69.0889 180.491 76.9119 183.47 79.9874 186.994C79.9989 187.008 80.0129 187.019 80.0284 187.028Z" fill="#263238"/>
<path d="M160.741 182.93C160.741 182.93 151.92 172.407 158.528 170.234C162.98 168.77 164.312 178.354 160.741 182.93Z" fill="#407BFF"/>
<path d="M165.183 183.385C165.183 183.385 179.087 189.051 178.428 182.625C177.956 178.022 168.618 178.711 165.183 183.385Z" fill="#407BFF"/>
<path d="M166.349 178.767C166.349 178.767 168.531 164.056 174.43 167.703C178.629 170.299 172.184 178.31 166.349 178.767Z" fill="#407BFF"/>
<path d="M149.626 197.737C149.567 197.748 149.504 197.729 149.463 197.68C149.402 197.608 149.411 197.501 149.483 197.44C154.245 193.426 160.363 186.096 164.657 180.654C169.313 174.755 172.886 169.742 172.921 169.692C172.976 169.616 173.082 169.598 173.158 169.652C173.235 169.707 173.253 169.813 173.198 169.889C173.163 169.939 169.585 174.959 164.924 180.865C160.62 186.319 154.486 193.667 149.702 197.7C149.679 197.719 149.653 197.731 149.626 197.737Z" fill="#263238"/>
<path d="M157.537 189.717C157.459 189.732 157.378 189.691 157.347 189.614C157.312 189.527 157.354 189.428 157.44 189.393C157.487 189.374 162.206 187.482 165.688 187.608C165.782 187.611 165.855 187.69 165.851 187.784C165.848 187.877 165.769 187.951 165.675 187.947C162.267 187.824 157.614 189.689 157.568 189.708C157.558 189.712 157.547 189.715 157.537 189.717Z" fill="#263238"/>
<path d="M164.595 188.401C164.091 187.695 164.262 186.72 164.979 186.222C165.573 185.81 166.355 185.856 166.892 186.287C167.003 186.375 167.103 186.48 167.189 186.6C167.693 187.306 167.522 188.282 166.805 188.779C166.747 188.82 166.688 188.855 166.626 188.887C165.932 189.246 165.059 189.05 164.595 188.401Z" fill="#407BFF"/>
<g opacity="0.5">
<path d="M164.595 188.401C164.091 187.695 164.262 186.72 164.979 186.222C165.573 185.81 166.355 185.856 166.892 186.287C167.003 186.375 167.103 186.48 167.189 186.6C167.693 187.306 167.522 188.282 166.805 188.779C166.747 188.82 166.688 188.855 166.626 188.887C165.932 189.246 165.059 189.05 164.595 188.401Z" fill="white"/>
</g>
<path d="M155.077 192.436C155.042 192.443 155.005 192.439 154.97 192.422C154.886 192.381 154.85 192.28 154.891 192.195C156.024 189.85 154.232 183.821 154.213 183.761C154.186 183.671 154.237 183.576 154.327 183.549C154.417 183.522 154.512 183.573 154.539 183.663C154.615 183.915 156.387 189.88 155.197 192.343C155.173 192.393 155.128 192.426 155.077 192.436Z" fill="#263238"/>
<path d="M153.388 184.529C154.152 184.953 155.119 184.685 155.548 183.932C155.904 183.308 155.778 182.545 155.289 182.061C155.189 181.962 155.073 181.874 154.943 181.802C154.179 181.379 153.212 181.646 152.783 182.399C152.748 182.46 152.718 182.522 152.693 182.586C152.4 183.303 152.686 184.14 153.388 184.529Z" fill="#407BFF"/>
<g opacity="0.5">
<path d="M153.388 184.529C154.152 184.953 155.119 184.685 155.548 183.932C155.904 183.308 155.778 182.545 155.289 182.061C155.189 181.962 155.073 181.874 154.943 181.802C154.179 181.379 153.212 181.646 152.783 182.399C152.748 182.46 152.718 182.522 152.693 182.586C152.4 183.303 152.686 184.14 153.388 184.529Z" fill="white"/>
</g>
<path d="M160.801 185.897C160.784 185.901 160.766 185.901 160.747 185.899C160.654 185.888 160.588 185.803 160.599 185.71C161.174 180.968 158.732 174.363 158.707 174.297C158.674 174.209 158.719 174.112 158.807 174.079C158.895 174.046 158.993 174.09 159.025 174.178C159.032 174.195 159.657 175.877 160.202 178.13C160.706 180.213 161.242 183.226 160.936 185.751C160.928 185.826 160.871 185.883 160.801 185.897Z" fill="#263238"/>
<path d="M161.617 184.911C161.547 184.925 161.473 184.893 161.436 184.828C161.389 184.746 161.418 184.643 161.5 184.596C163.242 183.609 165.907 182.877 169.421 182.42C172.031 182.081 174.16 182.029 174.182 182.029C174.276 182.027 174.353 182.101 174.355 182.195C174.357 182.289 174.283 182.366 174.189 182.368C174.105 182.37 165.737 182.587 161.667 184.892C161.651 184.901 161.634 184.907 161.617 184.911Z" fill="#263238"/>
<path d="M69.1745 196.321C69.1745 196.321 69.6775 190.41 67.308 190.058C64.9385 189.707 67.1265 195.491 67.1265 195.491C67.1265 195.491 64.661 192.399 63.011 193.78C61.361 195.16 67.118 197.569 67.118 197.569L69.1745 196.321Z" fill="#407BFF"/>
<path d="M164.073 207.5C164.073 207.5 171.579 200.25 172.829 200.25C174.079 200.25 183.739 200.5 188.284 200.25C192.829 200 197.829 204.5 201.829 207.5C205.829 210.5 216.579 213.25 216.579 213.25L218.329 216H164.073V207.5Z" fill="#263238"/>
<path opacity="0.4" d="M218.33 216H164.075V207.5C164.075 207.5 171.58 200.25 172.83 200.25C173.09 200.25 173.705 200.26 174.56 200.275C177.85 200.33 184.68 200.45 188.285 200.25C192.83 200 197.83 204.5 201.83 207.5C205.83 210.5 216.58 213.25 216.58 213.25L218.08 215.605L218.33 216Z" fill="white"/>
<path opacity="0.2" d="M218.33 216H164.075V207.5C164.075 207.5 171.58 200.25 172.83 200.25C173.09 200.25 173.705 200.26 174.56 200.275C174.86 204.91 179.17 208.375 183.885 207.52C183.925 207.515 183.96 207.505 184 207.5C185.845 207.165 192.125 208.125 194.125 211.375C196.125 214.625 205.675 214.26 205.675 214.26C205.675 214.26 214.405 214.66 218.08 215.605L218.33 216Z" fill="black"/>
<path opacity="0.5" d="M98.445 207.834C98.445 207.834 89.7785 195.667 87.6115 194.334C85.445 193 77.278 195.167 71.778 195.167C66.278 195.167 63.1115 202.935 59.778 204.334C56.445 205.732 45.1115 216 45.1115 216H101.445L98.445 207.834Z" fill="white"/>
<path d="M98.445 207.834C98.445 207.834 89.7785 195.667 87.6115 194.334C85.445 193 77.278 195.167 71.778 195.167C66.278 195.167 63.1115 202.935 59.778 204.334C56.445 205.732 45.1115 216 45.1115 216H101.445L98.445 207.834Z" fill="#263238"/>
<path opacity="0.4" d="M101.445 216H45.11C45.11 216 45.475 215.67 46.09 215.12C48.91 212.61 57.04 205.48 59.78 204.335C63.11 202.935 66.28 195.165 71.78 195.165C76.885 195.165 84.29 193.3 87.055 194.105C87.27 194.16 87.455 194.24 87.61 194.335C89.78 195.665 98.445 207.835 98.445 207.835L101.445 216Z" fill="white"/>
<path opacity="0.2" d="M101.445 216H45.11C45.11 216 45.475 215.67 46.09 215.12C48.95 214.745 55.39 213.81 57.13 212.75C59.385 211.375 70.25 210 75.75 210.875C81.25 211.75 81 203.25 83.75 201C85.43 199.625 86.49 196.4 87.055 194.105C87.27 194.16 87.455 194.24 87.61 194.335C89.78 195.665 98.445 207.835 98.445 207.835L101.445 216Z" fill="black"/>
<path d="M114.77 44.378C115.868 39.7648 113.018 35.1351 108.405 34.0373C103.792 32.9395 99.162 35.7893 98.0642 40.4025C96.9664 45.0157 99.8162 49.6454 104.429 50.7432C109.043 51.841 113.672 48.9912 114.77 44.378Z" fill="#407BFF"/>
<g opacity="0.7">
<path d="M114.77 44.378C115.868 39.7648 113.018 35.1351 108.405 34.0373C103.792 32.9395 99.162 35.7893 98.0642 40.4025C96.9664 45.0157 99.8162 49.6454 104.429 50.7432C109.043 51.841 113.672 48.9912 114.77 44.378Z" fill="white"/>
</g>
<path d="M106.414 51.1465C101.582 51.1465 97.651 47.2155 97.651 42.3835C97.651 37.5515 101.582 33.6205 106.414 33.6205C111.246 33.6205 115.177 37.5515 115.177 42.3835C115.177 47.2155 111.246 51.1465 106.414 51.1465ZM106.414 33.974C101.777 33.974 98.0045 37.7465 98.0045 42.3835C98.0045 47.0205 101.777 50.793 106.414 50.793C111.051 50.793 114.824 47.0205 114.824 42.3835C114.824 37.746 111.051 33.974 106.414 33.974Z" fill="#407BFF"/>
<path d="M106.483 37.611C108.343 37.611 109.606 38.7075 109.606 40.5115C109.606 42.4685 108.218 43.329 106.358 43.329L106.303 44.4255H104.929L104.859 42.2465H105.317C106.886 42.2465 108.093 41.969 108.093 40.512C108.093 39.5405 107.496 38.944 106.497 38.944C105.512 38.944 104.888 39.499 104.888 40.4705H103.403C103.388 38.7905 104.596 37.611 106.483 37.611ZM105.595 47.492C105.026 47.492 104.582 47.048 104.582 46.479C104.582 45.91 105.026 45.466 105.595 45.466C106.151 45.466 106.595 45.91 106.595 46.479C106.594 47.048 106.15 47.492 105.595 47.492Z" fill="#407BFF"/>
<path d="M112.742 48.2145L115.72 49.169C115.876 49.219 116.012 49.051 115.931 48.9085L114.242 45.952C113.759 46.922 113.261 47.6985 112.742 48.2145Z" fill="#407BFF"/>
<path d="M165.123 201.169C165.123 201.169 163.935 195.357 166.248 194.732C168.56 194.107 167.06 200.107 167.06 200.107C167.06 200.107 169.149 196.749 170.948 197.928C172.748 199.107 167.31 202.169 167.31 202.169L165.123 201.169Z" fill="#407BFF"/>
<path d="M107.24 187.213C107.24 187.213 106.768 181.299 104.373 181.34C101.978 181.381 105.084 186.729 105.084 186.729C105.084 186.729 102.146 184.082 100.744 185.714C99.342 187.346 105.416 188.78 105.416 188.78L107.24 187.213Z" fill="#407BFF"/>
<path opacity="0.3" d="M107.24 187.213C107.24 187.213 106.768 181.299 104.373 181.34C101.978 181.381 105.084 186.729 105.084 186.729C105.084 186.729 102.146 184.082 100.744 185.714C99.342 187.346 105.416 188.78 105.416 188.78L107.24 187.213Z" fill="white"/>
<path d="M87.579 216C87.579 216 94.2455 195.833 97.579 193.899C104.888 189.659 109.96 180.613 111.079 180C116.34 177.112 135.557 177.528 142.984 178.68C150.412 179.833 156.579 196.565 160.912 197.115C165.246 197.666 173.579 207.999 174.079 208.999C174.579 209.999 174.079 215.999 174.079 215.999H87.579V216Z" fill="#263238"/>
<path opacity="0.5" d="M174.08 216H87.58C87.58 216 94.245 195.835 97.58 193.9C104.89 189.66 109.96 180.615 111.08 180C116.34 177.115 135.555 177.53 142.985 178.68C146.47 179.225 149.675 183.195 152.545 187.31C155.5 191.55 158.1 195.95 160.275 196.925C160.49 197.025 160.7 197.09 160.91 197.115C165.245 197.665 173.58 208 174.08 209C174.58 210 174.08 216 174.08 216Z" fill="white"/>
<path opacity="0.2" d="M160.275 196.925C158.31 196.815 156.005 196.77 153.75 196.905C148 197.25 143.5 196.895 141.665 196.82C139.835 196.75 141.845 193.035 145.13 191.56C147.31 190.58 150.47 188.78 152.545 187.31C155.5 191.55 158.1 195.95 160.275 196.925Z" fill="black"/>
<path opacity="0.2" d="M170.33 216H95.455C99.28 213.3 108.275 207.295 112.885 207.165C118.835 207 124.74 212.5 131.7 210C138.665 207.5 148.427 203.98 153.147 204.125C162.027 204.396 168.6 210.61 170.33 216Z" fill="black"/>
<path d="M120.959 67.4515C123.136 64.095 124.349 62.984 129.858 64.2595C135.368 65.535 135.927 61.371 134.889 60.3545C133.851 59.338 134.207 59.046 134.751 58.0775C135.295 57.109 135.604 56.5385 135.227 55.861C134.849 55.1835 134.528 54.7375 135.393 53.6855C136.258 52.6335 135.615 49.2475 135.615 49.2475L129.579 43.3195C129.579 43.3195 125.452 43.0225 123.794 45.216C122.135 47.409 122.434 48.8825 120.932 49.4955C119.621 50.0305 119.354 51.742 119.534 52.709C119.76 53.917 119.033 54.534 117.936 54.711C116.611 54.9255 116.01 56.075 116.01 56.9575C116.01 57.7365 115.609 58.509 114.486 58.589C113.575 58.654 112.065 59.644 111.998 61.4775C111.918 63.6975 109.939 64.0455 111.116 67.161C112.557 70.975 118.525 71.205 120.959 67.4515Z" fill="#263238"/>
<path d="M150.804 70.2915C150.796 70.4585 150.787 70.638 150.749 70.8905C150.74 70.946 150.727 71.0145 150.71 71.0915C150.697 71.16 150.672 71.25 150.646 71.3355C150.624 71.4125 150.582 71.5365 150.547 71.6265L150.462 71.815C150.436 71.8705 150.406 71.935 150.355 72.016C150.205 72.2815 149.931 72.6835 149.413 73.0305C149.161 73.2015 148.84 73.347 148.527 73.4285C148.365 73.4715 148.215 73.497 148.065 73.514C147.988 73.5225 147.915 73.527 147.838 73.531H147.774L147.445 73.5225C147.346 73.5185 147.197 73.5095 147.137 73.497L146.696 73.433L146.341 73.3645C145.883 73.262 145.511 73.155 145.134 73.048C144.402 72.8295 143.722 72.5945 143.05 72.3545C141.719 71.8665 140.435 71.353 139.168 70.814C139.036 70.7585 138.899 70.7025 138.766 70.643C138.299 70.442 137.828 70.2365 137.366 70.031C137.191 69.954 137.02 69.877 136.848 69.7955C136.219 69.513 135.594 69.222 134.974 68.9225C133.883 68.4045 132.804 67.8655 131.726 67.3005L132.393 60.663C134.794 61.78 139.313 64.078 141.697 65.2335C142.823 65.7725 143.952 66.3205 145.065 66.817C144.885 65.653 144.667 64.459 144.453 63.2695L142.797 54.2695L145.729 53.3195C146.82 55.8485 147.95 59.5075 148.836 62.1225C149.285 63.4235 149.7 64.7415 150.073 66.111C150.265 66.7955 150.441 67.4935 150.586 68.2465C150.655 68.6275 150.728 69.021 150.77 69.479C150.792 69.718 150.809 69.962 150.804 70.2915Z" fill="#407BFF"/>
<path opacity="0.2" d="M136.849 69.795C136.22 69.5125 135.595 69.2215 134.974 68.922L134.889 64.527C134.983 64.784 135.608 67.5695 136.596 69.316C136.686 69.474 136.772 69.6365 136.849 69.795Z" fill="black"/>
<path d="M151.531 50.589H136.525V52.179H151.531V50.589Z" fill="#263238"/>
<path d="M142.8 54.267C142.8 54.267 141.098 52.942 140.903 52.412C140.707 51.882 141.517 50.6305 141.907 50.656C142.455 50.692 141.74 52.079 141.74 52.079L145.101 52.179C145.101 52.179 145.743 52.2445 145.729 53.3185C144.874 54.0445 143.927 54.46 142.8 54.267Z" fill="#FFC3BD"/>
<path d="M141.237 50.861C141.237 50.861 140.875 50.0545 141.349 49.831C141.823 49.608 144.585 49.738 145.24 50.0845C145.896 50.431 145.533 51.379 145.031 51.4975C144.529 51.6165 141.837 51.905 141.237 50.861Z" fill="#FFC3BD"/>
<path d="M156.318 49.6245H147.133V53.1435H156.318V49.6245Z" fill="#407BFF"/>
<path opacity="0.3" d="M156.318 49.6245H147.133V53.1435H156.318V49.6245Z" fill="white"/>
<path d="M166.515 49.0396H153.019V53.7281H166.515V49.0396Z" fill="#407BFF"/>
<path d="M166.749 48.5305H165.813V54.4655H166.749V48.5305Z" fill="#407BFF"/>
<path opacity="0.4" d="M166.749 48.5305H165.813V54.4655H166.749V48.5305Z" fill="black"/>
<path d="M136.525 50.231H135.589V52.5365H136.525V50.231Z" fill="#407BFF"/>
<path d="M132.334 170.845L133.364 175.772H135.957L136.241 170.845H132.334Z" fill="#FFC3BD"/>
<path d="M143.37 179.257C143.283 177.651 142.595 177.172 141.726 177.117C140.823 177.06 137.627 175.977 137.627 175.977C137.627 175.977 136.986 174.958 136.399 174.751C135.811 174.544 135.215 175.15 135.215 175.15L133.594 174.952C133.594 174.952 133.131 174.219 132.773 174.861C132.22 175.856 132.19 178.611 132.216 179.256H143.37V179.257Z" fill="#407BFF"/>
<path d="M143.173 178.837C142.498 178.834 141.826 178.831 141.151 178.828C138.202 178.813 135.254 178.796 132.306 178.782C132.193 178.782 132.222 178.61 132.334 178.612C132.533 178.615 132.735 178.614 132.933 178.616C132.934 178.609 132.939 178.599 132.944 178.593C133.522 177.668 133.189 176.728 132.419 176.26C132.329 176.208 132.443 176.058 132.53 176.113C133.362 176.62 133.698 177.625 133.112 178.615C133.528 178.619 133.942 178.62 134.359 178.621C137.304 178.636 140.252 178.653 143.201 178.667C143.314 178.667 143.285 178.84 143.173 178.837Z" fill="black"/>
<path d="M137.115 176.672C137.593 176.132 138.271 175.979 138.747 176.386C138.824 176.452 138.935 176.304 138.859 176.239C138.312 175.771 137.524 175.974 136.982 176.586C136.903 176.676 137.037 176.761 137.115 176.672Z" fill="white"/>
<path d="M138.02 176.96C138.498 176.419 139.175 176.266 139.651 176.674C139.728 176.74 139.839 176.591 139.763 176.526C139.217 176.058 138.428 176.262 137.887 176.874C137.807 176.963 137.941 177.048 138.02 176.96Z" fill="white"/>
<path d="M138.956 177.247C139.434 176.706 140.111 176.553 140.587 176.961C140.664 177.027 140.775 176.878 140.699 176.813C140.153 176.346 139.364 176.549 138.823 177.161C138.743 177.25 138.877 177.336 138.956 177.247Z" fill="white"/>
<path d="M137.765 133.316C137.786 146.647 136.429 172.11 136.429 172.11L132.424 172.196C132.424 172.196 125.722 149.411 128.161 133.641C127.558 130.919 127.027 128.36 126.561 125.959C126.274 124.483 126.013 123.066 125.778 121.705C124.965 117.066 124.425 113.086 124.079 109.675C123.955 108.481 123.856 107.36 123.779 106.303C122.885 93.909 124.879 90.6265 124.879 90.6265L135.775 90.6695C135.775 90.6705 137.731 111.474 137.765 133.316Z" fill="#263238"/>
<path opacity="0.2" d="M125.778 121.706C124.965 117.067 124.425 113.087 124.079 109.676L125.628 98.579C125.628 98.579 126.886 112.158 125.778 121.706Z" fill="black"/>
<path d="M136.855 173.051L137.039 171.336H131.702L131.946 173.051H136.855Z" fill="#263238"/>
<path d="M113.924 170.9L114.969 175.795H117.562L117.831 170.9H113.924Z" fill="#FFC3BD"/>
<path d="M124.985 179.257C124.893 177.662 124.203 177.186 123.335 177.131C122.431 177.075 119.232 175.999 119.232 175.999C119.232 175.999 118.589 174.986 118 174.78C117.411 174.575 116.817 175.177 116.817 175.177L115.195 174.98C115.195 174.98 114.729 174.252 114.374 174.89C113.823 175.878 113.801 178.615 113.83 179.257H124.985Z" fill="#407BFF"/>
<path d="M124.786 178.84C124.111 178.837 123.439 178.834 122.764 178.831C119.816 178.817 116.868 178.8 113.919 178.785C113.806 178.786 113.834 178.614 113.947 178.617C114.145 178.619 114.347 178.618 114.546 178.62C114.547 178.614 114.552 178.604 114.556 178.598C115.132 177.679 114.796 176.745 114.025 176.28C113.934 176.228 114.048 176.079 114.135 176.134C114.969 176.638 115.308 177.636 114.724 178.62C115.141 178.624 115.555 178.625 115.972 178.626C118.917 178.64 121.865 178.658 124.814 178.672C124.927 178.671 124.899 178.843 124.786 178.84Z" fill="black"/>
<path d="M118.723 176.689C119.199 176.152 119.876 176 120.353 176.404C120.43 176.47 120.541 176.322 120.465 176.258C119.917 175.793 119.129 175.995 118.589 176.603C118.51 176.692 118.644 176.777 118.723 176.689Z" fill="white"/>
<path d="M119.628 176.974C120.105 176.437 120.781 176.285 121.259 176.69C121.336 176.755 121.447 176.608 121.37 176.543C120.822 176.079 120.035 176.28 119.495 176.888C119.416 176.978 119.55 177.063 119.628 176.974Z" fill="white"/>
<path d="M120.565 177.26C121.041 176.723 121.718 176.571 122.195 176.976C122.272 177.041 122.383 176.894 122.307 176.829C121.759 176.364 120.971 176.566 120.431 177.174C120.352 177.264 120.486 177.349 120.565 177.26Z" fill="white"/>
<path d="M111.386 106.78C111.282 111.712 111.503 118.093 112.33 126.305C112.57 128.691 112.861 131.233 113.213 133.939C109.299 149.608 113.873 172.244 113.873 172.244L117.885 172.155C117.885 172.155 121.624 146.858 122.848 133.615C124.854 111.916 124.839 91.2465 124.839 91.2465L113.947 91.204C113.947 91.204 111.647 94.4665 111.386 106.78Z" fill="#263238"/>
<path d="M118.224 173.091L118.569 171.388H113.231L113.315 173.091H118.224Z" fill="#263238"/>
<path d="M136.179 92.175C136.179 94.165 121.574 95.105 112.884 92.24C113.029 91.7 113.234 90.76 113.359 90.215C113.424 89.96 113.484 89.7 113.539 89.435C113.719 88.565 113.864 87.615 113.994 86.585C113.994 86.545 114.004 86.49 114.014 86.445C114.164 85.13 114.269 83.7 114.324 82.155C114.344 81.59 114.359 81.015 114.364 80.42C114.369 79.85 114.369 79.265 114.359 78.66C114.354 78.255 114.349 77.845 114.334 77.425C114.324 77.08 114.309 76.735 114.289 76.38C114.254 75.495 114.199 74.585 114.124 73.655C114.049 72.695 113.959 71.72 113.844 70.715V70.71C113.639 68.89 113.369 67.005 113.029 65.065C112.539 62.33 114.539 59.785 117.299 59.59C118.044 59.54 118.824 59.505 119.629 59.49C120.429 59.485 121.194 59.465 121.944 59.465C124.074 59.455 125.999 59.505 128.019 59.75C128.169 59.77 128.319 59.79 128.479 59.81C129.234 59.91 129.999 60.035 130.749 60.16C133.959 60.715 135.349 62.94 135.459 66.79C135.584 71.065 138.834 73.74 134.724 76.615C134.194 80.265 136.179 86.57 136.179 92.175Z" fill="#407BFF"/>
<path opacity="0.2" d="M114.364 80.42C114.369 79.85 114.369 79.265 114.359 78.66C114.354 78.255 114.349 77.845 114.334 77.425L116.654 72.74L114.324 82.155C114.344 81.59 114.359 81.015 114.364 80.42Z" fill="black"/>
<path d="M113.553 61.9745C113.553 61.9745 108.108 79.0725 106.954 80.5C105.089 82.807 94.6625 89.105 94.6625 89.105L95.0925 92.6295C95.0925 92.6295 107.332 89.8695 111.362 84.431C113.877 81.037 118.945 66.5035 118.945 66.5035L113.553 61.9745Z" fill="#407BFF"/>
<path d="M134.432 53.0715C134.432 53.0715 136.867 49.7315 134.751 46.572C132.635 43.4125 129.203 44.7285 129.203 44.7285L134.432 53.0715Z" fill="#263238"/>
<path d="M128.532 60.888C128.549 60.942 128.572 60.997 128.608 61.053C129.308 62.157 127.992 64.1795 127.992 64.1795C127.875 64.171 128.105 64.202 127.992 64.1795C127.992 64.1795 126.164 62.723 125.864 62.3985C125.863 62.397 125.862 62.3955 125.86 62.3945C124.417 60.828 122.864 59.641 122.864 59.641C124.674 58.671 125.336 55.225 125.504 53.072L128.314 56.65L128.84 57.4315C128.586 57.882 128.359 58.3495 128.231 58.813C128.024 59.532 128.113 59.7645 128.532 60.888Z" fill="#FFC3BD"/>
<g opacity="0.2">
<path d="M128.231 58.8125C128.359 58.3485 128.586 57.881 128.841 57.431L128.315 56.6495L126.545 56.69C126.545 56.69 127.009 58.1185 128.231 58.8125Z" fill="black"/>
</g>
<path d="M124.989 49.235C124.707 52.7725 124.514 54.2635 125.998 56.308C128.231 59.383 132.555 58.9385 133.868 55.5525C135.049 52.5045 135.311 47.232 132.14 45.363C129.016 43.5225 125.27 45.6975 124.989 49.235Z" fill="#FFC3BD"/>
<path d="M125.767 51.5505C123.993 51.079 124.69 49.247 124.69 49.247L127.303 49.652C127.303 49.652 127.54 52.018 125.767 51.5505Z" fill="#263238"/>
<path d="M132.927 45.692C132.927 45.692 132.882 47.648 130.482 47.7525C128.083 47.857 128.264 51.5275 125.606 50.843C122.324 49.9975 123.568 47.195 124.359 45.9795C124.862 45.2065 130.231 40.5705 132.927 45.692Z" fill="#263238"/>
<path d="M132.394 54.687C132.394 54.687 130.671 53.908 130.292 53.1575C130.292 53.1575 130.039 54.4995 130.942 54.9945C131.844 55.489 132.394 54.687 132.394 54.687Z" fill="white"/>
<path d="M130.81 50.813C130.77 51.0985 130.889 51.3515 131.075 51.3775C131.262 51.4035 131.446 51.1935 131.486 50.908C131.526 50.6225 131.407 50.3695 131.22 50.3435C131.034 50.317 130.85 50.527 130.81 50.813Z" fill="#263238"/>
<path d="M133.712 51.2845C133.672 51.57 133.791 51.823 133.978 51.8495C134.164 51.8755 134.348 51.6655 134.388 51.38C134.428 51.0945 134.31 50.8415 134.123 50.8155C133.936 50.789 133.752 50.999 133.712 51.2845Z" fill="#263238"/>
<path d="M134.038 50.819L134.751 50.7175C134.751 50.7175 134.324 51.2045 134.038 50.819Z" fill="#263238"/>
<path d="M132.647 51.2255C132.647 51.2255 133.033 52.0515 133.475 52.7835C133.618 53.0215 133.511 53.3345 133.246 53.421C132.791 53.569 132.316 53.5985 132.316 53.5985L132.647 51.2255Z" fill="#ED847E"/>
<path d="M123.4 51.489C123.62 52.2045 124.11 52.7035 124.608 52.921C125.357 53.248 125.864 52.448 125.767 51.549C125.68 50.7405 125.185 49.5955 124.38 49.6555C123.587 49.7145 123.15 50.671 123.4 51.489Z" fill="#FFC3BD"/>
<path d="M125.271 52.412C125.271 52.676 125.057 52.89 124.793 52.89C124.529 52.89 124.315 52.676 124.315 52.412C124.315 52.148 124.529 51.934 124.793 51.934C125.057 51.934 125.271 52.148 125.271 52.412Z" fill="white"/>
<path d="M130.028 49.67C130.073 49.67 130.118 49.652 130.151 49.617C130.669 49.0675 131.284 49.171 131.291 49.172C131.382 49.188 131.471 49.1275 131.488 49.0355C131.504 48.9435 131.443 48.8555 131.351 48.8385C131.319 48.833 130.548 48.702 129.904 49.384C129.84 49.452 129.843 49.559 129.911 49.6235C129.944 49.655 129.986 49.67 130.028 49.67Z" fill="#263238"/>
<path d="M135.044 50.1835C135.086 50.187 135.129 50.1755 135.165 50.147C135.237 50.0885 135.249 49.9815 135.191 49.909C134.603 49.179 133.824 49.248 133.791 49.2515C133.698 49.261 133.63 49.344 133.64 49.437C133.649 49.53 133.732 49.5975 133.825 49.5885C133.855 49.5855 134.46 49.541 134.927 50.1215C134.957 50.1585 134.999 50.18 135.044 50.1835Z" fill="#263238"/>
<path d="M131.136 50.3475L131.849 50.246C131.849 50.246 131.422 50.7325 131.136 50.3475Z" fill="#263238"/>
<path d="M123.295 59.464C123.295 59.464 122.16 58.7465 120.555 59.479L123.872 64.527C123.872 64.527 123.474 63.4605 125.049 63.6C126.625 63.7395 127.991 64.1795 127.991 64.1795C127.991 64.1795 125.023 61.13 123.295 59.464Z" fill="#407BFF"/>
<path opacity="0.3" d="M123.295 59.464C123.295 59.464 122.16 58.7465 120.555 59.479L123.872 64.527C123.872 64.527 123.474 63.4605 125.049 63.6C126.625 63.7395 127.991 64.1795 127.991 64.1795C127.991 64.1795 125.023 61.13 123.295 59.464Z" fill="white"/>
<path d="M128.16 59.77C128.16 59.77 129.061 62.521 127.991 64.179C127.991 64.179 130.024 62.9515 130.559 63.084C131.094 63.2165 130.96 64.0455 130.96 64.0455C130.96 64.0455 131.905 62.307 131.326 61.05C130.746 59.793 128.16 59.77 128.16 59.77Z" fill="#407BFF"/>
<path opacity="0.3" d="M128.16 59.77C128.16 59.77 129.061 62.521 127.991 64.179C127.991 64.179 130.024 62.9515 130.559 63.084C131.094 63.2165 130.96 64.0455 130.96 64.0455C130.96 64.0455 131.905 62.307 131.326 61.05C130.746 59.793 128.16 59.77 128.16 59.77Z" fill="white"/>
<path d="M93.0706 201.465L92.3951 203.047L92.2791 57.773H93.0706V201.465Z" fill="#263238"/>
<path d="M93.24 60.477C93.24 60.477 85.4975 57.736 80.317 62.8155C70.824 72.123 66.276 67.144 66.276 67.144C66.276 67.144 68.255 77.3345 78.204 72.339C85.9815 68.434 93.24 70.8825 93.24 70.8825C93.6255 70.8825 93.6255 60.477 93.24 60.477Z" fill="#407BFF"/>
<path d="M93.68 57.773C93.68 58.328 93.23 58.778 92.675 58.778C92.12 58.778 91.67 58.328 91.67 57.773C91.67 57.218 92.12 56.768 92.675 56.768C93.23 56.768 93.68 57.218 93.68 57.773Z" fill="#407BFF"/>
<path opacity="0.3" d="M93.68 57.773C93.68 58.328 93.23 58.778 92.675 58.778C92.12 58.778 91.67 58.328 91.67 57.773C91.67 57.218 92.12 56.768 92.675 56.768C93.23 56.768 93.68 57.218 93.68 57.773Z" fill="white"/>
<path d="M95.0609 89.1255C95.0609 89.1255 93.757 88.756 93.1485 88.632C92.5405 88.508 91.3155 89.595 91.4085 90.0145C91.5385 90.6035 92.6914 89.884 92.6914 89.884L92.7585 93.8175C92.7585 93.8175 93.6229 93.6395 94.4769 93.0885C96.4804 91.876 96.1254 89.93 95.0609 89.1255Z" fill="#FFC3BD"/>
<path d="M92.3975 89.262C92.3975 89.262 91.5185 88.848 91.264 89.3645C91.0095 89.881 91.0995 92.9175 91.467 93.6445C91.8345 94.3715 92.8835 93.9915 93.0235 93.442C93.1635 92.893 93.5325 89.941 92.3975 89.262Z" fill="#FFC3BD"/>
</g>
<defs>
<clipPath id="clip0_24_3612">
<rect width="250" height="250" fill="white" transform="translate(0.5 0.5)"/>
</clipPath>
</defs>
</svg>
