<svg width="249" height="243" viewBox="0 0 249 243" fill="none" xmlns="http://www.w3.org/2000/svg">
<path d="M205.143 189.929C201.339 193.934 197.739 196.517 194.895 198.558C161.464 222.545 121.906 215.553 113.499 213.845C101.084 211.324 77.0864 206.45 59.7366 186.047C33.4879 155.179 37.5752 106.547 57.9355 74.4448C61.6597 68.5727 81.3321 35.9812 121.316 30.7546C145.514 27.5915 173.721 33.9711 194.148 51.0846C237.025 87.0076 233.973 159.578 205.143 189.929Z" fill="url(#paint0_linear_24_3281)"/>
<path d="M172.67 172.17C200.683 144.156 200.683 98.7369 172.67 70.7232C144.656 42.7095 99.2369 42.7095 71.2232 70.7232C43.2096 98.7368 43.2096 144.156 71.2232 172.17C99.2369 200.183 144.656 200.183 172.67 172.17Z" fill="#BDD0FB"/>
<path d="M121.948 182.669C155.76 182.669 183.17 155.259 183.17 121.447C183.17 87.6343 155.76 60.2241 121.948 60.2241C88.1359 60.2241 60.7257 87.6343 60.7257 121.447C60.7257 155.259 88.1359 182.669 121.948 182.669Z" fill="url(#paint1_linear_24_3281)"/>
<path d="M121.948 185.735C86.4993 185.735 57.6594 156.896 57.6594 121.447C57.6594 85.9973 86.4993 57.1577 121.948 57.1577C157.397 57.1577 186.237 85.9973 186.237 121.447C186.237 156.896 157.397 185.735 121.948 185.735ZM121.948 60.2242C88.19 60.2242 60.726 87.6882 60.726 121.446C60.726 155.205 88.19 182.669 121.948 182.669C155.706 182.669 183.17 155.205 183.17 121.446C183.17 87.6882 155.706 60.2242 121.948 60.2242Z" fill="white"/>
<path d="M121.948 158.771C142.562 158.771 159.272 142.06 159.272 121.447C159.272 100.833 142.562 84.1224 121.948 84.1224C101.335 84.1224 84.624 100.833 84.624 121.447C84.624 142.06 101.335 158.771 121.948 158.771Z" fill="url(#paint2_linear_24_3281)"/>
<path d="M121.948 161.837C99.6767 161.837 81.5576 143.718 81.5576 121.446C81.5576 99.1751 99.6767 81.0563 121.948 81.0563C144.219 81.0563 162.339 99.1751 162.339 121.446C162.339 143.718 144.219 161.837 121.948 161.837ZM121.948 87.189C103.058 87.189 87.6903 102.557 87.6903 121.446C87.6903 140.336 103.058 155.705 121.948 155.705C140.838 155.705 156.206 140.336 156.206 121.446C156.206 102.557 140.838 87.189 121.948 87.189Z" fill="white"/>
<path d="M121.948 135.907C129.935 135.907 136.409 129.433 136.409 121.446C136.409 113.46 129.935 106.986 121.948 106.986C113.962 106.986 107.488 113.46 107.488 121.446C107.488 129.433 113.962 135.907 121.948 135.907Z" fill="url(#paint3_linear_24_3281)"/>
<path d="M121.948 138.973C112.284 138.973 104.421 131.111 104.421 121.446C104.421 111.782 112.284 103.919 121.948 103.919C131.612 103.919 139.475 111.782 139.475 121.446C139.475 131.111 131.612 138.973 121.948 138.973ZM121.948 110.052C115.665 110.052 110.554 115.164 110.554 121.447C110.554 127.73 115.665 132.841 121.948 132.841C128.231 132.841 133.342 127.73 133.342 121.447C133.342 115.164 128.231 110.052 121.948 110.052Z" fill="white"/>
<path d="M190.395 53.1843L191.918 54.7074L134.243 112.383L132.719 110.86L190.395 53.1843Z" fill="url(#paint4_linear_24_3281)"/>
<path d="M133.799 107.185C134.672 106.311 138.792 110.43 137.918 111.304L122.639 123.315C122.075 123.759 121.343 123.028 121.787 122.463L133.799 107.185Z" fill="url(#paint5_linear_24_3281)"/>
<path d="M191.885 54.7403L199.645 55.5115L188.993 66.1633C185.503 69.6533 180.631 71.3938 175.72 70.9057L191.885 54.7403Z" fill="#91B3FA"/>
<path d="M190.362 53.2173L189.591 45.4581L178.939 56.1099C175.449 59.5999 173.709 64.4713 174.197 69.3827L190.362 53.2173Z" fill="#91B3FA"/>
<g opacity="0.3">
<path d="M83.8806 42.4771C83.6638 42.694 83.3122 42.6938 83.0956 42.4769C82.6746 42.0557 82.229 41.6465 81.7712 41.2607C81.5396 41.0654 81.5078 40.7212 81.6977 40.4869C81.7 40.4841 81.7022 40.4813 81.7045 40.4785C81.9021 40.2441 82.2523 40.2143 82.4867 40.4119C82.9686 40.8181 83.4377 41.2488 83.8809 41.6923C84.0836 41.895 84.0965 42.2157 83.9198 42.4336C83.9076 42.4487 83.8946 42.4633 83.8806 42.4771ZM79.4141 39.5355C78.9083 39.2158 78.3839 38.9148 77.8552 38.6404C77.5833 38.4993 77.477 38.1643 77.6181 37.8921C77.7607 37.6195 78.0944 37.5139 78.3665 37.6552C78.9227 37.9437 79.4747 38.2606 80.0071 38.5969C80.2662 38.7606 80.3435 39.1035 80.1798 39.3627C80.1679 39.3815 80.155 39.3994 80.1414 39.4162C79.9666 39.6317 79.6544 39.6873 79.4141 39.5355ZM75.1765 37.4795C74.6137 37.281 74.0354 37.1046 73.4575 36.9551C73.1607 36.8784 72.9824 36.5755 73.0591 36.2787C73.1361 35.9823 73.4386 35.8038 73.7355 35.8804C74.3441 36.0378 74.9532 36.2237 75.5458 36.4327C75.8349 36.5347 75.9865 36.8517 75.8847 37.1409C75.8629 37.2025 75.8314 37.2579 75.7925 37.3059C75.6488 37.4829 75.4039 37.5598 75.1765 37.4795ZM70.5855 36.423C69.9918 36.3551 69.3884 36.3125 68.7918 36.2957C68.4853 36.287 68.2438 36.0316 68.2524 35.7253C68.2613 35.419 68.5167 35.1777 68.8228 35.186C69.451 35.2037 70.0864 35.2488 70.7111 35.3199C71.0156 35.3547 71.2344 35.6297 71.1997 35.9343C71.1873 36.0432 71.1441 36.1413 71.0798 36.2206C70.9643 36.3629 70.781 36.4451 70.5855 36.423ZM65.8735 36.4156C65.2811 36.4811 64.6829 36.573 64.096 36.6889C63.7952 36.7482 63.5034 36.5525 63.444 36.2517C63.3846 35.9508 63.5805 35.659 63.8812 35.5999C64.4986 35.478 65.128 35.3813 65.7514 35.3123C66.0561 35.2785 66.3304 35.4982 66.3641 35.8029C66.3811 35.9564 66.3338 36.1023 66.2436 36.2135C66.1549 36.323 66.0247 36.3988 65.8735 36.4156ZM61.2774 37.4509C60.7133 37.6461 60.1507 37.868 59.6049 38.1105C59.3248 38.235 58.9967 38.1088 58.8723 37.8288C58.7478 37.5486 58.8738 37.2207 59.1541 37.0961C59.7283 36.8408 60.3207 36.6073 60.9143 36.4019C61.2041 36.3017 61.5201 36.4552 61.6204 36.7449C61.6856 36.9331 61.6435 37.1323 61.5267 37.2764C61.4636 37.3541 61.379 37.4158 61.2774 37.4509ZM47.1196 52.4304C46.823 52.3532 46.645 52.05 46.7223 51.7533C46.8806 51.1456 47.0676 50.5366 47.2782 49.9433C47.3807 49.6544 47.698 49.5033 47.9869 49.6059C48.2757 49.7083 48.4267 50.0256 48.3243 50.3144C48.1244 50.8777 47.9469 51.4561 47.7966 52.0332C47.776 52.1124 47.7394 52.183 47.691 52.2427C47.5581 52.4065 47.3371 52.4871 47.1196 52.4304ZM57.0277 39.478C56.5214 39.7936 56.0226 40.1351 55.5453 40.4931C55.2999 40.6769 54.9521 40.6273 54.7682 40.382C54.5841 40.1366 54.635 39.7899 54.8793 39.6049C55.382 39.2279 55.9073 38.8684 56.4404 38.536C56.7006 38.3738 57.0429 38.4532 57.2051 38.7134C57.3337 38.9196 57.3104 39.1778 57.1654 39.3566C57.1276 39.4033 57.0814 39.4444 57.0277 39.478ZM48.7418 47.8729C48.4701 47.7313 48.3646 47.396 48.5063 47.1241C48.7966 46.5674 49.1148 46.0158 49.4518 45.4846C49.615 45.2248 49.959 45.1492 50.2179 45.3132C50.4766 45.4774 50.5533 45.8204 50.3891 46.0793C50.0688 46.5841 49.7664 47.1083 49.4906 47.6375C49.4731 47.6713 49.4523 47.7023 49.4293 47.7308C49.2665 47.9316 48.9798 47.9971 48.7418 47.8729ZM53.3383 42.4036C52.9157 42.8243 52.5056 43.2687 52.1196 43.7249C51.9216 43.9591 51.5714 43.9882 51.3373 43.7902C51.1064 43.5947 51.075 43.2511 51.2646 43.0171C51.2671 43.0141 51.2696 43.011 51.2722 43.0081C51.6785 42.5278 52.1101 42.0597 52.5548 41.6169C52.7722 41.4008 53.1236 41.4015 53.3399 41.6187C53.5419 41.8216 53.5546 42.1417 53.3781 42.3593C53.3657 42.3745 53.3524 42.3893 53.3383 42.4036Z" fill="#91B3FA"/>
<path d="M47.0539 56.0877C47.1227 56.0029 47.1674 55.8968 47.176 55.7795C47.197 55.4941 47.2244 55.2045 47.2572 54.9183C47.2921 54.6138 47.0735 54.3385 46.7691 54.3036C46.4645 54.2686 46.1889 54.487 46.1545 54.7918C46.1199 55.0927 46.0911 55.3974 46.0689 55.6977C46.0463 56.0033 46.276 56.2696 46.5815 56.2921C46.77 56.3061 46.9433 56.2242 47.0539 56.0877Z" fill="#91B3FA"/>
</g>
<g opacity="0.3">
<path d="M52.4981 72.1102C52.6669 71.9021 52.6645 71.5966 52.48 71.3907C52.289 71.1777 52.0992 70.957 51.9162 70.7349C51.7211 70.4983 51.3713 70.4646 51.1348 70.6596C50.8973 70.8555 50.8646 71.2045 51.0595 71.441C51.2524 71.6748 51.4522 71.9073 51.6532 72.1316C51.8578 72.3599 52.2087 72.3791 52.437 72.1746C52.4594 72.1545 52.4798 72.1328 52.4981 72.1102Z" fill="#91B3FA"/>
<path d="M84.678 72.1593C84.4735 72.3876 84.1225 72.4071 83.894 72.2024C83.6657 71.9979 83.6466 71.6476 83.8509 71.4187C84.2403 70.9839 84.617 70.5258 84.9754 70.052C85.1587 69.808 85.5086 69.7594 85.753 69.9443C85.9975 70.1292 86.0457 70.4773 85.8609 70.7218C85.7055 70.9271 85.5475 71.129 85.3866 71.3274C85.1573 71.6105 84.9188 71.8904 84.678 72.1593ZM86.7622 68.4032C86.4951 68.2531 86.4002 67.9147 86.5504 67.6475C86.8386 67.1344 87.1084 66.6037 87.352 66.0699C87.4782 65.7909 87.8084 65.668 88.0874 65.7952C88.3661 65.9224 88.4891 66.2517 88.3618 66.5305C88.1054 67.0925 87.8215 67.6513 87.518 68.1911C87.5023 68.2191 87.4845 68.2453 87.465 68.2694C87.2978 68.4756 87.0016 68.5377 86.7622 68.4032ZM82.5107 74.2691C82.0397 74.6685 81.5452 75.0533 81.0407 75.4125C80.791 75.5903 80.4444 75.5321 80.2665 75.2823C80.0887 75.0326 80.1472 74.6864 80.3967 74.5082C80.8759 74.1671 81.3454 73.8018 81.7925 73.4224C82.0264 73.2242 82.3766 73.2529 82.575 73.4867C82.7503 73.6935 82.7479 73.9916 82.5831 74.1948C82.5618 74.2213 82.5376 74.2462 82.5107 74.2691ZM88.7351 64.0709C88.4415 63.9832 88.2745 63.6738 88.3624 63.3801C88.5307 62.8172 88.677 62.2402 88.7971 61.6655C88.8597 61.3652 89.1537 61.173 89.4539 61.2358C89.754 61.2985 89.9463 61.5925 89.8836 61.8925C89.7571 62.4978 89.6031 63.1054 89.4259 63.6981C89.4044 63.7697 89.3699 63.8339 89.3256 63.8886C89.1882 64.0582 88.9571 64.1373 88.7351 64.0709ZM78.4641 76.9924C77.9172 77.2782 77.3503 77.5446 76.7792 77.7843C76.4966 77.903 76.1715 77.7701 76.0527 77.4875C75.9339 77.2047 76.067 76.8794 76.3497 76.7608C76.8921 76.5331 77.4305 76.2801 77.9499 76.0085C78.2216 75.8665 78.557 75.9717 78.699 76.2434C78.8047 76.4458 78.7734 76.6835 78.6381 76.8503C78.5919 76.9074 78.5333 76.9562 78.4641 76.9924ZM73.9184 78.7622C73.3208 78.922 72.7094 79.0584 72.1013 79.1677C71.7995 79.2218 71.5111 79.0213 71.4568 78.7195C71.4025 78.4174 71.6031 78.129 71.905 78.0752C72.4827 77.9713 73.0637 77.8417 73.6317 77.6899C73.9278 77.6107 74.232 77.7866 74.3113 78.0828C74.3589 78.2613 74.3139 78.4426 74.2059 78.576C74.1346 78.6638 74.036 78.7307 73.9184 78.7622ZM69.0948 79.4993C68.4762 79.5252 67.8496 79.5252 67.2327 79.4994C66.9262 79.4866 66.6885 79.228 66.7012 78.9217C66.714 78.615 66.9728 78.3775 67.2789 78.3903C67.8652 78.4149 68.4604 78.4148 69.0484 78.3902C69.3547 78.3774 69.6133 78.6154 69.6261 78.9215C69.632 79.0623 69.5851 79.1928 69.5029 79.2941C69.406 79.4136 69.2604 79.4924 69.0948 79.4993ZM64.2253 79.1667C63.6161 79.0567 63.0046 78.9194 62.4076 78.7585C62.1117 78.6787 61.9363 78.3741 62.0161 78.078C62.0958 77.7826 62.4006 77.6069 62.6965 77.6867C63.2632 77.8394 63.8439 77.9698 64.4227 78.0742C64.7243 78.1287 64.9247 78.4173 64.8702 78.7189C64.853 78.8142 64.8125 78.8993 64.7555 78.9695C64.6321 79.1218 64.4318 79.2039 64.2253 79.1667ZM59.5455 77.7715C58.9769 77.5306 58.4111 77.262 57.8636 76.9733C57.5924 76.8303 57.4884 76.4945 57.6315 76.2234C57.7741 75.9532 58.11 75.8483 58.3813 75.9913C58.9013 76.2656 59.4388 76.5205 59.9788 76.7495C60.261 76.869 60.3928 77.1949 60.2732 77.4771C60.2524 77.5262 60.2254 77.5709 60.1934 77.6104C60.0415 77.7977 59.7785 77.8702 59.5455 77.7715ZM55.2907 75.3852C54.9203 75.1207 54.5536 74.8414 54.2008 74.5554C54.073 74.4518 53.9468 74.3471 53.8219 74.2412C53.5882 74.0431 53.5522 73.6919 53.7575 73.459C53.9555 73.2251 54.3058 73.1962 54.5398 73.3944C54.6584 73.4949 54.7785 73.5946 54.9 73.6931C55.2354 73.9651 55.5839 74.2304 55.936 74.4819C56.1854 74.66 56.2431 75.0068 56.065 75.2561C56.0582 75.2655 56.0513 75.2747 56.0442 75.2835C55.8608 75.5096 55.5306 75.5567 55.2907 75.3852Z" fill="#91B3FA"/>
<path d="M90.1764 59.1926C90.2459 59.1068 90.2906 58.9998 90.2988 58.8815C90.3194 58.5817 90.3341 58.2758 90.3423 57.9723C90.3507 57.6658 90.1092 57.4106 89.8027 57.4022C89.4963 57.394 89.241 57.6352 89.2327 57.9418C89.2247 58.2302 89.2108 58.5207 89.1913 58.8054C89.1701 59.111 89.401 59.3761 89.7069 59.3971C89.8944 59.4099 90.0665 59.3281 90.1764 59.1926Z" fill="#91B3FA"/>
</g>
<path d="M83.9327 52.0119C83.9101 51.9036 83.8214 51.8214 83.7116 51.8075L80.5796 51.4076C79.958 50.0705 79.1188 48.8229 78.0731 47.7234L78.8485 44.6648C78.8756 44.5575 78.8318 44.4448 78.7392 44.3841L75.5721 42.3076C75.4795 42.2469 75.3586 42.2516 75.2711 42.3193L72.7753 44.2499C71.35 43.7293 69.8712 43.4571 68.3972 43.4202L66.7816 40.7075C66.725 40.6124 66.6143 40.5637 66.5059 40.5863L62.7981 41.3574C62.6898 41.3799 62.6076 41.4688 62.5936 41.5786L62.1938 44.7106C60.8566 45.3321 59.609 46.1713 58.5096 47.2172L55.451 46.4418C55.3437 46.4146 55.231 46.4584 55.1704 46.551L53.0938 49.7182C53.0331 49.8107 53.0379 49.9316 53.1055 50.0191L55.0362 52.5149C54.5155 53.9402 54.2433 55.419 54.2065 56.893L51.4937 58.5085C51.3987 58.5652 51.3499 58.6759 51.3726 58.7842L52.1437 62.4921C52.1662 62.6004 52.2551 62.6826 52.3648 62.6966L55.4968 63.0965C56.1183 64.4336 56.9576 65.6812 58.0034 66.7807L57.2281 69.8392C57.2008 69.9465 57.2447 70.0593 57.3372 70.1199L60.5045 72.1964C60.597 72.2571 60.7179 72.2524 60.8054 72.1847L63.3012 70.254C64.7265 70.7747 66.2053 71.0469 67.6793 71.0838L69.2948 73.7965C69.3514 73.8916 69.4621 73.9403 69.5705 73.9178L73.2784 73.1465C73.3867 73.124 73.4688 73.0352 73.4829 72.9254L73.8827 69.7935C75.2198 69.172 76.4674 68.3328 77.5669 67.2869L80.6254 68.0623C80.7327 68.0894 80.8454 68.0456 80.9061 67.9531L82.9826 64.7859C83.0433 64.6933 83.0386 64.5725 82.9709 64.4849L81.0403 61.9892C81.5609 60.5639 81.8331 59.0851 81.87 57.6111L84.5827 55.9956C84.6778 55.939 84.7265 55.8282 84.704 55.7199L83.9327 52.0119Z" fill="#91B3FA"/>
<path d="M70.6141 60.055C69.0684 61.4753 66.6556 61.3734 65.2351 59.8278C64.547 59.0791 64.1917 58.1072 64.2347 57.0912C64.2775 56.0755 64.7133 55.1369 65.4623 54.4489C67.008 53.0287 69.4208 53.1305 70.8413 54.6762C72.1334 56.0824 72.1657 58.2062 70.997 59.6477C70.8812 59.7906 70.7534 59.9269 70.6141 60.055ZM65.122 57.1288C65.0891 57.9078 65.3615 58.6529 65.8891 59.2271C66.9781 60.412 68.8283 60.4902 70.0132 59.4012C71.1989 58.3123 71.2764 56.4621 70.1874 55.277C69.0984 54.0921 67.2483 54.0138 66.0633 55.1029C65.9559 55.2016 65.857 55.307 65.7667 55.4183C65.3748 55.9017 65.1488 56.4958 65.122 57.1288Z" fill="#BDD0FB"/>
<path d="M75.2189 63.171C75.4196 62.9235 75.6091 62.6643 75.7862 62.3942C75.842 62.3092 75.8964 62.2232 75.9494 62.1365C76.2108 61.7085 76.4376 61.2603 76.6266 60.7991C76.6292 60.7928 76.6317 60.7865 76.6343 60.7802C76.6415 60.7624 76.6487 60.7445 76.6558 60.7265C76.6698 60.6916 76.6834 60.6566 76.6969 60.6216C76.7325 60.5296 76.7025 60.4285 76.6299 60.3694C76.6122 60.355 76.592 60.3432 76.5696 60.3346C76.4552 60.2904 76.3269 60.3477 76.2827 60.4619C76.0557 61.0507 75.7637 61.6188 75.4148 62.1506C73.6828 64.7933 70.7767 66.2128 67.8298 66.1749C66.1906 66.1541 64.5388 65.6821 63.0693 64.7185C62.8115 64.5496 62.5642 64.3689 62.3282 64.1773C60.7392 62.8887 59.6507 61.1076 59.2286 59.0777C58.7436 56.746 59.1956 54.3648 60.5014 52.3732C63.1988 48.26 68.7356 47.1097 72.847 49.8053C73.1005 49.9715 73.3446 50.1499 73.5785 50.3397C74.592 51.1617 75.4144 52.1965 75.9831 53.3724C75.9978 53.4028 76.0184 53.4283 76.0431 53.4481C76.1078 53.5006 76.1996 53.5143 76.2796 53.4756C76.3899 53.4218 76.4365 53.2896 76.3828 53.179C75.7858 51.9444 74.9224 50.8579 73.8583 49.9949C73.6129 49.7958 73.3566 49.6085 73.0906 49.434C68.774 46.6038 62.9592 47.8145 60.13 52.1296C58.7591 54.2205 58.2846 56.7201 58.7938 59.168C59.237 61.2992 60.3796 63.1689 62.0477 64.5218C62.2957 64.7228 62.5552 64.9125 62.8256 65.0899C64.9168 66.4608 67.4164 66.9354 69.8643 66.4263C71.9959 65.9829 73.866 64.8397 75.2189 63.171Z" fill="#BDD0FB"/>
<g opacity="0.3">
<path d="M107.211 36.9329C107.304 36.8177 107.315 36.6506 107.227 36.5224C107.061 36.2828 106.887 36.045 106.707 35.8156C106.59 35.6665 106.375 35.6402 106.226 35.7568C106.076 35.873 106.05 36.0889 106.167 36.238C106.338 36.4567 106.505 36.6833 106.662 36.9118C106.77 37.0676 106.983 37.1067 107.139 36.9993C107.167 36.9802 107.191 36.9577 107.211 36.9329Z" fill="#91B3FA"/>
<path d="M105.497 34.9351C105.363 35.0692 105.146 35.0698 105.012 34.9361C104.673 34.5992 104.313 34.2756 103.942 33.9747C103.864 33.9113 103.784 33.8485 103.704 33.7863C103.555 33.6701 103.528 33.4548 103.644 33.3052C103.759 33.1682 103.975 33.1287 104.125 33.2448C104.209 33.31 104.292 33.3757 104.374 33.442C104.763 33.7575 105.14 34.0967 105.495 34.4502C105.621 34.5752 105.63 34.7738 105.52 34.9087C105.513 34.9178 105.505 34.9265 105.497 34.9351ZM102.267 32.8042C101.769 32.5071 101.249 32.2381 100.72 32.005C100.547 31.9285 100.469 31.7264 100.545 31.553C100.621 31.3808 100.824 31.3012 100.997 31.3777C101.551 31.622 102.097 31.9039 102.618 32.2156C102.781 32.3126 102.834 32.5232 102.737 32.6858C102.728 32.7001 102.719 32.7135 102.708 32.7262C102.603 32.8564 102.415 32.8926 102.267 32.8042ZM99.0866 31.4031C98.5325 31.2372 97.9621 31.1044 97.3909 31.0083C97.2043 30.9769 97.0784 30.8 97.1099 30.6134C97.1415 30.4261 97.3178 30.3006 97.5048 30.3322C98.1037 30.4329 98.7021 30.5724 99.2831 30.7461C99.4645 30.8005 99.5677 30.9915 99.5134 31.1729C99.5 31.217 99.4787 31.2566 99.4513 31.2904C99.3664 31.3951 99.2237 31.444 99.0866 31.4031ZM95.6595 30.8262C95.0807 30.8012 94.4949 30.812 93.9193 30.8584C93.7304 30.8735 93.5652 30.7329 93.5501 30.5442C93.5351 30.356 93.6754 30.1903 93.8641 30.1749C94.4681 30.1263 95.0819 30.1151 95.6891 30.1412C95.8782 30.1493 96.0251 30.3095 96.0169 30.4987C96.0134 30.5749 95.9855 30.6442 95.9408 30.6994C95.8747 30.7808 95.7724 30.8311 95.6595 30.8262ZM92.1954 31.1035C91.6281 31.22 91.063 31.3727 90.515 31.5573C90.3358 31.6178 90.1413 31.5213 90.0807 31.3418C90.0202 31.1624 90.1164 30.9677 90.2962 30.9075C90.8703 30.714 91.4629 30.554 92.0573 30.4317C92.2428 30.3938 92.424 30.5131 92.4621 30.6985C92.4836 30.8032 92.4549 30.9067 92.3925 30.9836C92.3444 31.043 92.2761 31.0868 92.1954 31.1035ZM88.9036 32.2133C88.3822 32.464 87.8718 32.7497 87.3862 33.0626C87.2272 33.1651 87.0149 33.1192 86.9124 32.9601C86.81 32.801 86.8556 32.5896 87.0149 32.4861C87.524 32.158 88.0596 31.8583 88.6065 31.5953C88.7772 31.5134 88.982 31.5851 89.0639 31.7556C89.1232 31.8791 89.1021 32.0206 89.0212 32.1203C88.9903 32.1584 88.9508 32.1906 88.9036 32.2133ZM85.9844 34.0936C85.5418 34.4635 85.1167 34.8661 84.7209 35.2905C84.5916 35.4288 84.3747 35.4363 84.2364 35.3071C84.0979 35.1781 84.0923 34.9632 84.2195 34.8224C84.6348 34.3777 85.0804 33.9555 85.5445 33.5677C85.6899 33.4463 85.9061 33.4656 86.0276 33.6109C86.1343 33.7386 86.1321 33.9215 86.031 34.0463C86.0172 34.0631 86.0017 34.0791 85.9844 34.0936ZM82.213 38.2369C82.0472 38.1452 81.9874 37.9367 82.0791 37.771C82.3328 37.3124 82.6162 36.8598 82.9201 36.427C82.966 36.3609 83.0126 36.2959 83.0596 36.2311C83.1659 36.0755 83.3854 36.044 83.5386 36.1559C83.6918 36.2673 83.7253 36.4816 83.614 36.6348C83.5697 36.6954 83.526 36.7568 83.4822 36.8197C83.1912 37.2339 82.9209 37.6656 82.6789 38.1029C82.669 38.1209 82.6575 38.1378 82.6451 38.1531C82.5423 38.2799 82.3606 38.3186 82.213 38.2369Z" fill="#91B3FA"/>
</g>
<g opacity="0.3">
<path d="M106.408 54.4192C106.026 54.8784 105.612 55.318 105.179 55.7265C105.041 55.8561 104.824 55.8499 104.694 55.712C104.564 55.574 104.573 55.3575 104.709 55.2273C105.122 54.838 105.517 54.4184 105.881 53.9803C106.002 53.8348 106.219 53.8151 106.364 53.9362C106.508 54.0564 106.529 54.2701 106.411 54.4155C106.41 54.4167 106.409 54.418 106.408 54.4192ZM106.998 53.0741C106.839 52.9713 106.794 52.759 106.896 52.6002C107.206 52.122 107.489 51.6202 107.739 51.1087C107.822 50.9399 108.027 50.868 108.198 50.9514C108.368 51.0344 108.438 51.2394 108.355 51.4097C108.093 51.9457 107.796 52.4715 107.472 52.9725C107.465 52.9831 107.458 52.993 107.45 53.0026C107.341 53.1369 107.147 53.1702 106.998 53.0741ZM103.799 56.8755C103.316 57.2289 102.809 57.5559 102.289 57.8472C102.124 57.9398 101.915 57.8809 101.822 57.7159C101.73 57.5508 101.789 57.3427 101.954 57.2492C102.449 56.9713 102.933 56.6595 103.394 56.3226C103.546 56.2107 103.761 56.2438 103.873 56.3963C103.967 56.5248 103.958 56.6968 103.862 56.8148C103.844 56.8372 103.823 56.8576 103.799 56.8755ZM108.607 49.9626C108.428 49.9011 108.333 49.7059 108.394 49.5269C108.58 48.9885 108.734 48.4334 108.852 47.8767C108.891 47.6918 109.074 47.5735 109.258 47.6125C109.443 47.652 109.562 47.834 109.522 48.0192C109.399 48.603 109.237 49.1855 109.043 49.7501C109.029 49.7891 109.009 49.8241 108.985 49.8544C108.897 49.963 108.747 50.0107 108.607 49.9626ZM100.674 58.6278C100.122 58.8544 99.5506 59.0493 98.9752 59.2078C98.7926 59.2581 98.6039 59.1506 98.5537 58.9681C98.5034 58.7856 98.6104 58.5967 98.7933 58.5465C99.3423 58.3958 99.8871 58.2096 100.413 57.9933C100.588 57.9215 100.789 58.005 100.861 58.1804C100.91 58.3003 100.886 58.4324 100.81 58.5267C100.775 58.5697 100.729 58.6052 100.674 58.6278ZM97.2193 59.5794C96.6282 59.6673 96.0264 59.7201 95.431 59.7364C95.2418 59.7416 95.0843 59.5926 95.0792 59.4033C95.0738 59.2143 95.223 59.0563 95.4125 59.0512C95.9803 59.0356 96.5544 58.9851 97.1185 58.9012C97.3057 58.8733 97.4801 59.0026 97.508 59.1898C97.5227 59.2887 97.4936 59.3841 97.4351 59.4563C97.383 59.5205 97.3075 59.5662 97.2193 59.5794ZM93.6361 59.6765C93.0407 59.6205 92.4435 59.5272 91.8616 59.3998C91.6765 59.3591 91.5596 59.1764 91.6 58.9914C91.6404 58.8065 91.8235 58.6897 92.0082 58.73C92.5632 58.8517 93.1326 58.9406 93.7002 58.9937C93.8888 59.0115 94.0273 59.1787 94.0094 59.3672C94.003 59.4373 93.9758 59.5001 93.9347 59.5508C93.8649 59.6367 93.7548 59.6876 93.6361 59.6765Z" fill="#91B3FA"/>
<path d="M109.715 46.4128C109.756 46.3614 109.783 46.2975 109.79 46.2267C109.815 45.9343 109.832 45.64 109.84 45.3516C109.845 45.1624 109.696 45.0046 109.506 44.9994C109.317 44.9948 109.16 45.1435 109.154 45.3328C109.147 45.6077 109.131 45.8886 109.107 46.1676C109.09 46.3562 109.23 46.5224 109.418 46.5386C109.536 46.5487 109.645 46.4982 109.715 46.4128Z" fill="#91B3FA"/>
</g>
<path d="M105.579 41.3638C105.564 41.2913 105.504 41.2364 105.431 41.227L103.335 40.9594C102.919 40.0647 102.358 39.2299 101.658 38.4942L102.177 36.4475C102.195 36.3757 102.166 36.3003 102.104 36.2597L99.9844 34.8702C99.9225 34.8295 99.8415 34.8327 99.783 34.878L98.1129 36.1699C97.1592 35.8215 96.1696 35.6393 95.1833 35.6147L94.1022 33.7994C94.0643 33.7358 93.9902 33.7032 93.9177 33.7183L91.4366 34.2343C91.3641 34.2494 91.3091 34.3089 91.2998 34.3823L91.0322 36.478C90.1374 36.8939 89.3026 37.4555 88.5669 38.1554L86.5202 37.6365C86.4485 37.6184 86.373 37.6477 86.3324 37.7096L84.9429 39.829C84.9023 39.8909 84.9055 39.9718 84.9507 40.0304L86.2426 41.7004C85.8942 42.6542 85.712 43.6437 85.6874 44.6301L83.8721 45.7111C83.8085 45.7489 83.7759 45.823 83.791 45.8956L84.3071 48.3767C84.3222 48.4492 84.3816 48.5041 84.455 48.5136L86.5508 48.7812C86.9667 49.6759 87.5283 50.5108 88.2281 51.2465L87.7093 53.2932C87.6911 53.3649 87.7204 53.4403 87.7823 53.481L89.9017 54.8705C89.9636 54.9111 90.0445 54.908 90.1031 54.8627L91.7731 53.5708C92.7269 53.9192 93.7164 54.1014 94.7028 54.126L95.7838 55.9413C95.8216 56.0049 95.8957 56.0375 95.9683 56.0224L98.4494 55.5064C98.5219 55.4913 98.5768 55.4318 98.5863 55.3584L98.8538 53.2626C99.7486 52.8468 100.583 52.2851 101.319 51.5854L103.366 52.1042C103.438 52.1223 103.513 52.093 103.554 52.0311L104.943 49.9117C104.984 49.8498 104.981 49.7689 104.935 49.7103L103.643 48.0403C103.992 47.0865 104.174 46.097 104.199 45.1106L106.014 44.0296C106.077 43.9917 106.11 43.9176 106.095 43.8451L105.579 41.3638Z" fill="#91B3FA"/>
<path d="M96.6978 46.7795C96.1877 47.2484 95.5257 47.4905 94.8336 47.4611C94.1417 47.432 93.5024 47.135 93.0338 46.6249C92.0663 45.5722 92.136 43.9314 93.1885 42.9608C94.2416 41.9935 95.8851 42.063 96.8522 43.1157C97.321 43.6256 97.5631 44.2876 97.5338 44.9797C97.5101 45.5422 97.3093 46.0699 96.961 46.4994C96.881 46.5981 96.793 46.6918 96.6978 46.7795ZM93.5384 46.1609C93.8833 46.5361 94.3535 46.7546 94.8627 46.7762C95.3716 46.7976 95.8586 46.6195 96.2338 46.2749C96.6085 45.9296 96.8273 45.4599 96.8488 44.9507C96.8705 44.4418 96.6922 43.9547 96.3475 43.5797C95.6359 42.8054 94.427 42.7542 93.6524 43.4657C93.5826 43.53 93.5187 43.5982 93.4606 43.6698C92.875 44.392 92.8911 45.4565 93.5384 46.1609Z" fill="#BDD0FB"/>
<path d="M99.9029 48.948C100.04 48.7794 100.169 48.6027 100.29 48.4176C100.531 48.0501 100.735 47.6576 100.897 47.25C100.904 47.2316 100.911 47.2133 100.918 47.1949C100.973 47.0528 100.927 46.8966 100.815 46.8054C100.787 46.7833 100.756 46.765 100.722 46.7517C100.545 46.6835 100.347 46.7723 100.279 46.9483C100.131 47.3302 99.9423 47.698 99.7169 48.0414L99.7168 48.0416C99.7045 48.0605 99.6918 48.0792 99.6793 48.0979C99.1384 48.9059 98.4165 49.5485 97.5774 49.9882C97.1219 50.2267 96.6314 50.4054 96.1161 50.5174C96.1119 50.5184 96.1077 50.5192 96.1035 50.5202C96.0906 50.5228 96.0779 50.5257 96.0651 50.5282C94.5555 50.8421 93.014 50.5495 91.7247 49.7041C91.5578 49.5948 91.3978 49.4779 91.2449 49.3539C90.2163 48.5197 89.5117 47.3666 89.2382 46.0523C88.9244 44.5427 89.2172 43.0014 90.0625 41.7122C90.9078 40.424 92.2048 39.5398 93.7142 39.2256C95.2237 38.9117 96.7652 39.2043 98.0546 40.0497C98.2187 40.1571 98.3767 40.2728 98.5281 40.3955C99.1843 40.9278 99.7166 41.5975 100.085 42.3587C100.107 42.4056 100.139 42.445 100.177 42.4757C100.277 42.5567 100.419 42.5779 100.542 42.5181C100.713 42.4352 100.784 42.2308 100.702 42.06C100.29 41.2082 99.6943 40.4587 98.9604 39.8633C98.7909 39.7258 98.6142 39.5966 98.4307 39.4763C96.9879 38.5304 95.2634 38.203 93.5745 38.5543C91.8858 38.9057 90.4344 39.8921 89.4891 41.336C88.5432 42.7785 88.2157 44.5028 88.5672 46.1919C88.8729 47.6622 89.6612 48.9522 90.8121 49.8855C90.983 50.024 91.1621 50.155 91.3486 50.2773C94.1417 52.1084 97.8433 51.4883 99.9029 48.948Z" fill="#BDD0FB"/>
<path d="M65.3834 210.879C65.3834 210.879 64.9974 212.949 64.7983 215C64.7205 215.801 65.3322 216.503 66.1364 216.545C68.8685 216.684 74.7128 216.962 76.8116 216.888C77.1271 216.877 77.3364 216.556 77.2225 216.262C77.127 216.015 76.9403 215.814 76.7009 215.702L67.086 211.171L65.3834 210.879Z" fill="url(#paint6_linear_24_3281)"/>
<path d="M65.0951 209.658L65.3657 212.141C65.3657 212.141 67.0498 212.944 68.2136 212.069L67.5395 209.298L65.0951 209.658Z" fill="url(#paint7_linear_24_3281)"/>
<path d="M65.7609 163.035C65.6277 163.681 64.7704 195.347 68.0204 209.573C68.0734 209.805 67.9537 210.042 67.7325 210.13C67.2112 210.337 66.1904 210.635 64.97 210.664C64.5921 210.673 64.2557 210.425 64.1526 210.061C63.2163 206.759 58.7365 190.216 58.282 174.449C57.7741 156.831 58.2878 173.849 58.2878 173.849L58.788 162.967L65.7609 163.035Z" fill="url(#paint8_linear_24_3281)"/>
<path d="M54.264 211.855C54.264 211.855 53.671 212.896 53.0801 215.672C52.9734 216.173 53.3198 216.657 53.8294 216.712C54.7311 216.81 56.1193 216.937 57.2324 216.94C57.7454 216.941 58.1501 216.498 58.0932 215.989C57.9796 214.972 57.6114 213.303 56.4374 211.993L54.264 211.855Z" fill="url(#paint9_linear_24_3281)"/>
<path d="M53.7825 208.66L54.4342 212.417C54.4342 212.417 55.1092 212.929 56.4575 212.575L56.1678 208.537L53.7825 208.66Z" fill="url(#paint10_linear_24_3281)"/>
<path d="M52.3521 163.879C49.4239 180.563 52.5587 205.185 53.6492 210.009C53.716 210.304 53.9516 210.532 54.2498 210.584C54.7562 210.673 55.5907 210.75 56.4163 210.518C56.7008 210.439 56.9025 210.185 56.9168 209.89C57.1064 206 57.0599 182.11 59.7299 172.694C59.8652 172.217 60.1613 171.803 60.5683 171.519L65.6096 168.007L66.0485 162.257L52.3521 163.879Z" fill="url(#paint11_linear_24_3281)"/>
<path d="M70.297 132.385C62.0007 132.169 52.8231 134.397 52.8231 134.397C50.212 148.805 52.0941 165.471 52.0941 165.471C58.5018 167.217 65.7742 164.572 65.7742 164.572C66.8994 158.55 72.043 141.62 72.043 141.62C76.1019 141.156 79.4529 140.018 82.2179 138.498C80.1433 136.046 79.1837 132.942 78.7717 131.109C75.8292 131.993 72.8559 132.452 70.297 132.385Z" fill="url(#paint12_linear_24_3281)"/>
<path d="M94.9234 120.397C94.1177 119.404 93.0816 119.86 93.0816 119.86C91.8113 125.007 85.3689 129.128 78.7717 131.109C79.1838 132.942 80.1433 136.046 82.218 138.498C93.1928 132.464 94.9234 120.397 94.9234 120.397Z" fill="url(#paint13_linear_24_3281)"/>
<path d="M94.7233 120.645C94.806 120.917 93.8144 121.321 93.2434 120.206C93.2282 119.674 92.9266 117.394 93.2484 116.964C94.9618 114.675 98.2687 111.815 98.2687 111.815C98.8177 112.367 98.3561 112.9 98.3561 112.9L96.7493 114.542C97.0764 115.147 97.4775 115.658 97.6607 116.387C97.7995 116.94 97.7058 117.527 97.4228 118.026C97.1388 118.526 96.7516 119.177 96.3865 119.685C95.6955 120.647 94.7233 120.645 94.7233 120.645Z" fill="url(#paint14_linear_24_3281)"/>
<path d="M96.0435 115.611L94.582 116.826L94.1152 118.045L95.3941 119.492C95.3941 119.492 95.8518 117.068 96.1799 116.546C96.5079 116.023 96.3428 115.767 96.0435 115.611Z" fill="url(#paint15_linear_24_3281)"/>
<path d="M55.9292 142.462L52.8233 134.397C52.8233 134.397 45.0225 139.589 43.6842 146.254C45.1476 146.376 47.8088 146.782 50.4046 148.124C51.0079 144.977 55.9292 142.462 55.9292 142.462Z" fill="url(#paint16_linear_24_3281)"/>
<path d="M62.63 150.087C62.63 150.087 53.8813 154.922 50.9852 150.694C50.384 149.817 50.2465 148.949 50.4046 148.124C47.8087 146.782 45.1476 146.376 43.6841 146.254C43.2807 148.263 43.4634 150.406 44.6255 152.581C49.6789 162.038 63.7612 152.243 63.7612 152.243L62.63 150.087Z" fill="url(#paint17_linear_24_3281)"/>
<path d="M61.9567 125.568L59.2437 133.178C59.1987 133.304 59.2494 133.445 59.3659 133.511C60.0818 133.916 62.6637 135.09 65.8073 133.139C66.1348 132.936 66.3595 132.602 66.4126 132.22L67.3306 125.62L61.9567 125.568Z" fill="url(#paint18_linear_24_3281)"/>
<path d="M67.7687 118.553C67.7687 118.553 70.6159 124.038 70.2233 126.239C69.8306 128.44 66.239 128.247 63.1185 126.427L60.9822 120.513L67.7687 118.553Z" fill="url(#paint19_linear_24_3281)"/>
<path d="M63.2848 123.534C63.4129 123.479 63.4614 123.323 63.3862 123.206C63.1572 122.849 62.7288 122.121 62.5959 121.486C62.5959 121.486 62.0779 121.147 63.9298 120.722C65.7818 120.298 68.5437 119.637 69.1379 118.07C69.7171 116.542 68.2704 112.672 65.874 115.722C65.7828 115.838 65.6064 115.839 65.5175 115.721C65.1344 115.212 64.1242 114.154 62.7018 114.776C61.3707 115.358 61.2121 116.328 61.2257 116.818C61.2297 116.962 61.0998 117.073 60.9585 117.044C60.2896 116.91 58.6825 116.785 57.9162 118.427C57.2849 119.78 57.6795 120.553 58.0418 120.933C58.1592 121.056 58.1053 121.256 57.9423 121.304C57.5006 121.435 56.9283 121.803 56.9754 122.835C57.0405 124.263 58.6366 124.152 59.0912 124.091C59.1658 124.082 59.2405 124.108 59.2903 124.164C59.6755 124.599 61.4122 126.445 63.3087 126.683C63.4729 126.704 63.6019 126.543 63.5496 126.386L62.7507 123.99C62.7136 123.878 62.7679 123.757 62.8755 123.711L63.2848 123.534Z" fill="url(#paint20_linear_24_3281)"/>
<path d="M63.6117 123.876C63.6117 123.876 61.561 122.44 61.3988 123.632C61.2367 124.823 63.2412 125.377 64.2409 124.942L63.6117 123.876Z" fill="url(#paint21_linear_24_3281)"/>
<path d="M60.8422 157.728L65.608 141.085C65.6621 140.896 65.8233 140.758 66.0185 140.735C66.8819 140.634 69.384 140.351 72.2728 140.107C75.7525 139.813 79.7935 139.574 82.2083 139.777C82.5516 139.806 82.759 140.169 82.6064 140.478C81.2333 143.256 75.5849 154.557 72.7563 158.259C72.6625 158.381 72.5176 158.453 72.3633 158.452L61.3058 158.349C60.9841 158.346 60.7536 158.037 60.8422 157.728Z" fill="url(#paint22_linear_24_3281)"/>
<path d="M61.9937 153.707C61.9937 153.707 61.3298 150.977 61.5976 150.008C61.8654 149.04 62.3843 147.795 64.1137 148.071C65.8432 148.348 67.8833 149.077 67.8833 149.077C67.8833 149.077 67.7802 150.338 66.4658 149.931L67.2809 150.562C67.2809 150.562 67.1644 151.572 66.0541 151.032L66.8122 151.869C66.8122 151.869 66.3354 152.698 65.5185 152.166C64.7017 151.634 64.3101 154.036 61.9937 153.707Z" fill="url(#paint23_linear_24_3281)"/>
<path d="M71.9553 145.076C71.9553 145.848 72.5817 146.475 73.3543 146.475C74.1269 146.475 74.7533 145.848 74.7533 145.076C74.7533 144.303 74.1269 143.677 73.3543 143.677C72.5817 143.677 71.9553 144.303 71.9553 145.076Z" fill="#91B3FA"/>
<path d="M66.1473 145.998L67.1176 142.706C67.2367 142.302 67.5616 141.998 67.9656 141.914C71.0069 141.28 79.331 141.145 79.4146 141.144L79.4091 140.772C79.0657 140.777 70.9655 140.908 67.8896 141.55C67.3514 141.662 66.9188 142.065 66.7607 142.601L65.7904 145.893L66.1473 145.998Z" fill="#BDD0FB"/>
<path d="M190.01 121.246C190.142 120.993 190.516 121.033 190.593 121.308C190.875 122.325 191.559 124.1 192.995 124.731C193.067 124.763 193.136 124.795 193.202 124.827C193.267 124.632 193.268 124.405 193.112 124.167C192.666 123.485 193.471 122.553 193.471 122.553C193.471 122.553 193.524 123.374 194.148 123.89C194.685 124.335 194.943 125.325 194.576 126.137C193.799 129.155 192.636 133.146 197.167 136.061C201.698 138.977 208.08 130.559 208.08 130.559L204.913 140.6C204.913 140.6 200.024 144.207 194.338 139.134C188.651 134.062 192.42 126.68 192.42 126.68C192.42 126.68 188.083 124.93 190.01 121.246Z" fill="url(#paint24_linear_24_3281)"/>
<path d="M208.873 115.806C208.873 115.806 207.561 109.918 214.306 111.476C214.306 111.476 217.58 110.941 217.747 114.032C217.747 114.032 219.858 115.423 218.312 118.097C218.312 118.097 224.585 115.674 227.318 121.172C230.051 126.67 227.538 129.695 224.905 130.483C224.905 130.483 227.039 131.555 226.029 133.974C225.019 136.393 219.904 138.098 216.883 135.156C216.883 135.156 208.286 136.292 208.458 130.22C208.458 130.22 204.459 127.638 208.659 122.619C212.859 117.601 208.873 115.806 208.873 115.806Z" fill="url(#paint25_linear_24_3281)"/>
<path d="M208.503 129.456C209.858 129.05 213.805 128.299 217.559 131.764C218.196 132.351 218.456 133.244 218.229 134.08C217.22 137.792 214.56 148.759 216.893 153.504C216.893 153.504 212.782 158.036 208.298 154.384C208.298 154.384 206.285 145.614 203.65 141.764C201.831 139.107 206.551 131.784 207.746 130.015C207.927 129.747 208.193 129.549 208.503 129.456Z" fill="url(#paint26_linear_24_3281)"/>
<path d="M212.245 122.081C212.245 122.081 214.25 127.751 214.401 130.253C214.401 130.253 212.185 131.26 210.098 129.56C210.098 129.56 209.879 123.896 209.562 122.882L212.245 122.081Z" fill="url(#paint27_linear_24_3281)"/>
<path d="M209.461 114.35C209.461 114.35 204.218 121.687 207.352 123.819C210.486 125.95 214.219 120.736 214.219 120.736C214.219 120.736 215.435 116.719 214.163 115.357C212.891 113.994 209.461 114.35 209.461 114.35Z" fill="url(#paint28_linear_24_3281)"/>
<path d="M211.888 112.596C211.888 112.596 209.479 113.167 209.142 114.257C208.804 115.347 212.558 116.357 213.609 116.407L214.457 120.805C214.457 120.805 216.962 116.668 215.969 114.278C214.977 111.889 211.888 112.596 211.888 112.596Z" fill="url(#paint29_linear_24_3281)"/>
<path d="M213.203 120.196C213.203 120.196 215.243 117.832 216.055 119.373C216.867 120.914 214.218 122.071 213.301 121.314L213.203 120.196Z" fill="url(#paint30_linear_24_3281)"/>
<path d="M203.062 172.796C203.078 173.194 202.379 176.352 201.998 178.036C201.845 178.714 201.952 179.423 202.297 180.026L215.471 202.199C215.631 202.467 215.747 202.758 215.817 203.062C216.058 204.102 216.559 206.652 216.298 208.972L215.616 210.387L218.564 209.718L219.205 201.803L218.371 201.294C217.65 200.855 217.088 200.197 216.767 199.417C215.576 196.523 212.618 189.157 211.855 185.568C210.988 181.488 206.458 178.174 206.458 178.174L207.254 176.293L203.062 172.796Z" fill="url(#paint31_linear_24_3281)"/>
<path d="M221.84 206.994C221.84 206.994 220.248 204.471 220.061 203.489C219.874 202.506 219.352 200.772 218.371 201.294C218.371 201.294 217.908 206.066 218.068 207.93C218.227 209.795 215.96 209.735 215.96 209.735C215.96 209.735 215.335 209.822 214.878 210.28C214.562 210.596 214.788 211.144 215.233 211.173C215.975 211.22 217.154 211.233 218.391 210.994C218.824 210.91 219.144 210.542 219.17 210.103L219.497 204.611L221.505 207.146L221.84 206.994Z" fill="url(#paint32_linear_24_3281)"/>
<path d="M210.933 176.328C210.933 176.328 211.397 196.161 211.46 198.978C211.523 201.795 211.015 208.037 208.192 209.903L209.42 210.813C209.42 210.813 210.956 209.508 212.456 206.996C214.141 204.174 214.651 203.659 214.651 203.659L214.092 202.513C213.847 202.012 213.775 201.445 213.888 200.898C214.497 197.945 216.533 188.121 217.088 186.006C217.744 183.509 217.79 180.174 215.51 177.382C213.229 174.591 210.933 176.328 210.933 176.328Z" fill="url(#paint33_linear_24_3281)"/>
<path d="M213.54 211.707C213.628 211.707 213.702 211.645 213.715 211.558C213.809 210.897 214.2 208.246 214.52 207.56C214.887 206.773 216.084 203.465 214.519 203.184C214.519 203.184 210.628 208.869 209.881 209.635C209.134 210.402 208.192 209.903 208.192 209.903C208.192 209.903 207.464 210.118 206.915 210.819C206.654 211.153 206.897 211.643 207.321 211.647L209.942 211.672C210.703 211.68 211.388 211.217 211.671 210.511C212.132 209.358 212.924 207.668 213.848 206.918L213.368 211.514C213.357 211.616 213.437 211.706 213.54 211.707Z" fill="url(#paint34_linear_24_3281)"/>
<path d="M207.678 152.245C207.678 152.245 208.268 154.128 207.361 157.228L201.732 176.884C201.644 177.193 201.81 177.516 202.113 177.624C203.796 178.229 209.331 179.937 216.886 179.416C217.267 179.389 217.586 179.12 217.668 178.748C218.166 176.507 219.865 168.862 220.214 167.291C221.547 161.305 223.035 154.85 216.489 150.947C213.473 152.239 210.659 153.001 207.678 152.245Z" fill="url(#paint35_linear_24_3281)"/>
<path d="M218.096 132.504C218.096 132.504 224.5 137.827 226.09 145.099C227.679 152.372 216.732 153.145 216.732 153.145C216.732 153.145 215.246 151.485 213.481 152.077C211.717 152.669 213.344 149.181 215.409 149.19C217.473 149.199 216.517 150.831 219.437 149.508C222.282 148.22 224.04 144.235 216.782 138.194C216.361 137.843 216.026 137.397 215.823 136.888C214.413 133.339 215.532 131.012 218.096 132.504Z" fill="url(#paint36_linear_24_3281)"/>
<path d="M178.022 186.841H175.738V211.545H178.022V186.841Z" fill="#7D97F4"/>
<path d="M186.883 212.021H166.876V210.699C166.876 210.608 166.95 210.534 167.041 210.534H186.718C186.81 210.534 186.883 210.608 186.883 210.699V212.021Z" fill="#7D97F4"/>
<path d="M190.667 185.93C190.667 187.366 189.492 188.541 188.056 188.541H166.544C165.108 188.541 163.933 187.366 163.933 185.93V183.569C163.933 182.133 165.108 180.959 166.544 180.959H188.056C189.492 180.959 190.667 182.133 190.667 183.569V185.93Z" fill="#7D97F4"/>
<path d="M156.631 204.042C156.631 204.042 149.246 207.223 149.669 210.552C149.669 210.552 157.303 209.088 158.669 206.906C160.035 204.724 159.282 203.46 159.282 203.46L156.631 204.042Z" fill="url(#paint37_linear_24_3281)"/>
<path d="M158.439 200.407L158.814 203.648C158.871 204.137 158.599 204.62 158.136 204.787C157.904 204.87 157.599 204.927 157.2 204.929C156.637 204.932 156.138 204.562 155.987 204.019L155.261 201.398L158.439 200.407Z" fill="url(#paint38_linear_24_3281)"/>
<path d="M174.572 175.553C174.572 175.553 160.989 174.924 154.23 178.866C147.471 182.807 154.573 201.725 154.573 201.725C154.573 201.725 156.338 202.104 158.881 200.746C158.881 200.746 155.252 186.897 161.554 184.488C168.639 181.779 175.968 182.438 175.968 182.438L174.61 175.98L174.572 175.553Z" fill="url(#paint39_linear_24_3281)"/>
<path d="M151.153 209.091C152.697 208.753 157.277 206.855 157.973 206.881C158.669 206.906 159.654 207.948 159.654 207.948C159.654 207.948 159.824 208.518 159.327 209.336C158.146 210.256 155.604 211.946 152.649 212.131C150.475 212.267 149.167 211.402 148.418 210.563C149.073 209.925 150.125 209.317 151.153 209.091Z" fill="url(#paint40_linear_24_3281)"/>
<path d="M152.649 212.131C155.604 211.946 158.146 210.256 159.326 209.336C158.99 209.889 158.35 210.555 157.145 211.235C154.159 212.923 149.222 212.677 148.244 212.297C147.459 211.993 147.702 211.26 148.418 210.563C149.167 211.402 150.475 212.267 152.649 212.131Z" fill="url(#paint41_linear_24_3281)"/>
<path d="M161.276 206.252C161.175 206.634 160.093 207.783 159.468 208.424C159.17 208.728 158.739 208.859 158.323 208.768C158.06 208.71 157.762 208.62 157.504 208.481C157.118 208.271 156.983 207.78 157.195 207.394L158.777 204.518L161.276 206.252Z" fill="url(#paint42_linear_24_3281)"/>
<path d="M188.033 174.413C188.033 174.413 189.219 182.825 185.791 184.544C182.363 186.263 174.844 187.389 172.254 191.751C169.664 196.113 165.013 204.676 160.78 207.136C160.78 207.136 158.363 206.35 157.656 205.161C157.656 205.161 162.68 191.954 164.776 188.743C166.591 185.963 169.246 181.958 173.017 180.225C174.096 179.73 174.181 178.584 173.991 177.412L173.645 175.276L188.033 174.413Z" fill="url(#paint43_linear_24_3281)"/>
<path d="M156.261 164.879C161.067 166.251 163.218 152.725 163.199 152.396L170.567 161.011C170.567 161.011 166.177 168.737 159.547 169.56C157.869 169.768 156.443 169.477 155.246 168.929C156.128 167.485 156.329 166.059 156.261 164.879Z" fill="url(#paint44_linear_24_3281)"/>
<path d="M147.361 160.452C149.455 159.591 151.232 161.309 151.232 161.309C153.308 163.433 154.954 164.506 156.261 164.879C156.329 166.059 156.128 167.485 155.246 168.929C152.656 167.743 151.147 165.344 150.525 164.148C150.301 163.717 149.776 163.534 149.339 163.746C148.895 163.96 148.438 164.288 148.409 164.733C148.353 165.61 147.309 165.662 147.302 165.338C147.296 165.014 148.111 163.281 148.111 163.281C148.111 163.281 145.704 164.825 144.767 165.415C143.83 166.006 143.032 165.031 143.032 165.031C143.032 165.031 145.266 161.312 147.361 160.452Z" fill="url(#paint45_linear_24_3281)"/>
<path d="M186.181 146.83C186.181 146.83 179.723 142.424 164.125 150.393C164.125 150.393 162.518 152.429 163.271 154.725C164.023 157.02 173.285 169.444 173.644 175.276C173.644 175.276 179.975 179.003 188.194 175.308C188.194 175.308 190.95 159.908 186.181 146.83Z" fill="url(#paint46_linear_24_3281)"/>
<path d="M172.733 141.197L175.285 146.198C175.539 146.695 175.486 147.296 175.138 147.731C174.435 148.612 172.968 149.796 170.464 149.033C169.719 148.806 169.149 148.2 168.969 147.442L167.646 141.86L172.733 141.197Z" fill="url(#paint47_linear_24_3281)"/>
<path d="M190.964 164.294C191.401 161.254 183.368 155.361 183.368 155.361L186.182 146.83C186.182 146.83 201.512 157.77 198.288 166.704C197.825 167.985 197.136 168.918 196.296 169.579C194.672 166.25 192.471 164.866 190.964 164.294Z" fill="url(#paint48_linear_24_3281)"/>
<path d="M179.757 165.138C179.757 165.138 188.844 167.676 190.73 164.91C190.857 164.722 190.933 164.515 190.964 164.294C192.471 164.866 194.672 166.25 196.296 169.579C191.981 172.973 183.662 169.168 181.401 168.028C181.029 167.84 180.602 167.804 180.204 167.928C179.4 168.179 178.007 168.568 177.231 168.525C176.095 168.463 174.876 172.567 172.944 171.528C172.944 171.528 173.822 164.517 179.757 165.138Z" fill="url(#paint49_linear_24_3281)"/>
<path d="M169.461 133.023C169.38 133.094 166.013 138.973 164.3 141.971C163.777 142.886 164.168 144.051 165.137 144.466L165.88 144.785C166.894 145.219 169.076 145.584 169.934 144.89L175.346 139.177C175.346 139.177 171.282 131.448 169.461 133.023Z" fill="url(#paint50_linear_24_3281)"/>
<path d="M176.871 137.618C177.535 137.245 178.333 136.49 177.712 135.155C177.08 133.797 175.832 133.679 175.028 133.766C174.703 133.801 174.409 133.594 174.314 133.281C174.261 133.103 174.129 132.946 173.844 132.901C173.46 132.84 173.221 132.448 173.321 132.072C173.514 131.35 173.481 130.37 172.32 129.667C170.26 128.42 168.335 130.232 167.799 131.806C167.262 133.381 169.573 134.606 171.048 134.856C172.169 135.046 172.716 136.34 172.914 136.949C172.977 137.142 172.947 137.352 172.835 137.522L171.19 140.022C171.642 140.591 172.044 141.193 172.439 141.802C172.587 141.642 172.716 141.51 172.817 141.417C173.532 140.762 174.803 141.1 175.326 141.28C175.498 141.339 175.685 141.325 175.846 141.242C176.416 140.947 177.566 140.12 176.623 138.555C176.426 138.228 176.538 137.806 176.871 137.618Z" fill="url(#paint51_linear_24_3281)"/>
<path d="M171.84 142.871C171.84 142.871 172.892 140.167 174.088 140.317C175.283 140.468 176.178 141.703 174.635 142.985C172.715 144.579 171.84 142.871 171.84 142.871Z" fill="url(#paint52_linear_24_3281)"/>
<path d="M168.153 170.924C168.136 170.925 168.12 170.925 168.104 170.925L146.873 170.902C146.348 170.901 145.923 170.476 145.924 169.951C145.924 169.426 146.352 168.992 146.875 169.001L168.106 169.025C168.631 169.025 169.056 169.451 169.055 169.976C169.054 170.484 168.655 170.899 168.153 170.924Z" fill="url(#paint53_linear_24_3281)"/>
<path d="M127.788 151.648H145.469C146.773 151.648 147.96 152.4 148.517 153.58L156.69 170.913H134.718C133.877 170.913 133.122 170.399 132.813 169.617L126.474 153.579C126.108 152.652 126.791 151.648 127.788 151.648Z" fill="url(#paint54_linear_24_3281)"/>
<path d="M140.244 160.535C140.627 161.725 140.344 162.881 139.612 163.117C138.88 163.353 137.975 162.579 137.592 161.388C137.209 160.198 137.492 159.042 138.224 158.806C138.957 158.57 139.861 159.344 140.244 160.535Z" fill="#91B3FA"/>
<path d="M130.654 216.46C130.537 216.46 130.417 216.437 130.302 216.389C129.849 216.201 129.64 215.693 129.835 215.254L148.546 173.144C148.741 172.706 149.265 172.504 149.718 172.692C150.171 172.88 150.38 173.388 150.185 173.826L131.474 215.937C131.329 216.264 131 216.46 130.654 216.46Z" fill="#91B3FA"/>
<path d="M151.733 216.46C151.387 216.46 151.058 216.264 150.913 215.937L132.202 173.826C132.007 173.388 132.216 172.88 132.669 172.692C133.121 172.503 133.646 172.705 133.841 173.144L152.552 215.254C152.746 215.692 152.537 216.2 152.085 216.389C151.97 216.437 151.85 216.46 151.733 216.46Z" fill="#91B3FA"/>
<path d="M188.573 216.46C188.455 216.46 188.336 216.437 188.221 216.389C187.768 216.2 187.559 215.692 187.754 215.254L206.464 173.144C206.659 172.706 207.183 172.503 207.637 172.692C208.089 172.88 208.298 173.388 208.103 173.826L189.393 215.937C189.247 216.264 188.918 216.46 188.573 216.46Z" fill="#91B3FA"/>
<path d="M209.651 216.46C209.305 216.46 208.976 216.264 208.831 215.937L190.12 173.826C189.925 173.388 190.135 172.88 190.587 172.692C191.039 172.503 191.564 172.705 191.759 173.144L210.47 215.254C210.665 215.692 210.456 216.2 210.003 216.389C209.888 216.437 209.769 216.46 209.651 216.46Z" fill="#91B3FA"/>
<path d="M211.846 171.844C211.893 171.567 211.828 171.282 211.668 171.065C211.509 170.848 211.27 170.722 211.019 170.722H125.898C125.568 170.722 125.26 170.911 125.082 171.222C124.904 171.534 124.88 171.926 125.019 172.262L125.941 174.497C126.152 175.009 126.61 175.336 127.113 175.336H210.435C210.903 175.336 211.306 174.964 211.395 174.449L211.846 171.844Z" fill="#91B3FA"/>
<defs>
<linearGradient id="paint0_linear_24_3281" x1="250.709" y1="271.05" x2="85.0807" y2="65.3502" gradientUnits="userSpaceOnUse">
<stop stop-color="#DAE3FE"/>
<stop offset="1" stop-color="#E9EFFD"/>
</linearGradient>
<linearGradient id="paint1_linear_24_3281" x1="175.284" y1="50.6344" x2="37.4344" y2="233.652" gradientUnits="userSpaceOnUse">
<stop stop-color="#4F52FF"/>
<stop offset="1" stop-color="#4042E2"/>
</linearGradient>
<linearGradient id="paint2_linear_24_3281" x1="175.284" y1="50.6344" x2="37.4347" y2="233.652" gradientUnits="userSpaceOnUse">
<stop stop-color="#4F52FF"/>
<stop offset="1" stop-color="#4042E2"/>
</linearGradient>
<linearGradient id="paint3_linear_24_3281" x1="134.449" y1="22.9117" x2="126.775" y2="83.3967" gradientUnits="userSpaceOnUse">
<stop stop-color="#FF928E"/>
<stop offset="1" stop-color="#FE7062"/>
</linearGradient>
<linearGradient id="paint4_linear_24_3281" x1="105.659" y1="117.059" x2="167.344" y2="79.7436" gradientUnits="userSpaceOnUse">
<stop stop-color="#09005D"/>
<stop offset="1" stop-color="#1A0F91"/>
</linearGradient>
<linearGradient id="paint5_linear_24_3281" x1="126.454" y1="117.044" x2="170.118" y2="80.8265" gradientUnits="userSpaceOnUse">
<stop stop-color="#09005D"/>
<stop offset="1" stop-color="#1A0F91"/>
</linearGradient>
<linearGradient id="paint6_linear_24_3281" x1="76.589" y1="208.12" x2="40.8605" y2="246.25" gradientUnits="userSpaceOnUse">
<stop stop-color="#09005D"/>
<stop offset="1" stop-color="#1A0F91"/>
</linearGradient>
<linearGradient id="paint7_linear_24_3281" x1="65.0836" y1="210.868" x2="68.2247" y2="210.897" gradientUnits="userSpaceOnUse">
<stop stop-color="#FEBBBA"/>
<stop offset="1" stop-color="#FF928E"/>
</linearGradient>
<linearGradient id="paint8_linear_24_3281" x1="79.7887" y1="164.644" x2="49.3085" y2="205.145" gradientUnits="userSpaceOnUse">
<stop stop-color="#09005D"/>
<stop offset="1" stop-color="#1A0F91"/>
</linearGradient>
<linearGradient id="paint9_linear_24_3281" x1="68.7252" y1="200.75" x2="32.9951" y2="238.881" gradientUnits="userSpaceOnUse">
<stop stop-color="#09005D"/>
<stop offset="1" stop-color="#1A0F91"/>
</linearGradient>
<linearGradient id="paint10_linear_24_3281" x1="53.7641" y1="210.599" x2="56.4761" y2="210.624" gradientUnits="userSpaceOnUse">
<stop stop-color="#FEBBBA"/>
<stop offset="1" stop-color="#FF928E"/>
</linearGradient>
<linearGradient id="paint11_linear_24_3281" x1="74.463" y1="160.636" x2="43.9832" y2="201.136" gradientUnits="userSpaceOnUse">
<stop stop-color="#09005D"/>
<stop offset="1" stop-color="#1A0F91"/>
</linearGradient>
<linearGradient id="paint12_linear_24_3281" x1="-882.768" y1="-552.845" x2="-850.719" y2="-529.147" gradientUnits="userSpaceOnUse">
<stop stop-color="#FF928E"/>
<stop offset="1" stop-color="#FE7062"/>
</linearGradient>
<linearGradient id="paint13_linear_24_3281" x1="78.7913" y1="129.04" x2="94.8398" y2="129.192" gradientUnits="userSpaceOnUse">
<stop stop-color="#FEBBBA"/>
<stop offset="1" stop-color="#FF928E"/>
</linearGradient>
<linearGradient id="paint14_linear_24_3281" x1="91.2906" y1="126.469" x2="80.2892" y2="150.868" gradientUnits="userSpaceOnUse">
<stop stop-color="#FEBBBA"/>
<stop offset="1" stop-color="#FF928E"/>
</linearGradient>
<linearGradient id="paint15_linear_24_3281" x1="94.8663" y1="118.342" x2="99.4253" y2="111.476" gradientUnits="userSpaceOnUse">
<stop stop-color="#FEBBBA"/>
<stop offset="1" stop-color="#FF928E"/>
</linearGradient>
<linearGradient id="paint16_linear_24_3281" x1="-885.033" y1="-549.782" x2="-852.985" y2="-526.084" gradientUnits="userSpaceOnUse">
<stop stop-color="#FF928E"/>
<stop offset="1" stop-color="#FE7062"/>
</linearGradient>
<linearGradient id="paint17_linear_24_3281" x1="43.4581" y1="151.436" x2="63.767" y2="151.629" gradientUnits="userSpaceOnUse">
<stop stop-color="#FEBBBA"/>
<stop offset="1" stop-color="#FF928E"/>
</linearGradient>
<linearGradient id="paint18_linear_24_3281" x1="58.3891" y1="140.222" x2="66.0626" y2="125.326" gradientUnits="userSpaceOnUse">
<stop stop-color="#FEBBBA"/>
<stop offset="1" stop-color="#FF928E"/>
</linearGradient>
<linearGradient id="paint19_linear_24_3281" x1="69.2478" y1="124.86" x2="60.4704" y2="119.391" gradientUnits="userSpaceOnUse">
<stop stop-color="#FEBBBA"/>
<stop offset="1" stop-color="#FF928E"/>
</linearGradient>
<linearGradient id="paint20_linear_24_3281" x1="55.8513" y1="113.671" x2="67.171" y2="122.787" gradientUnits="userSpaceOnUse">
<stop stop-color="#09005D"/>
<stop offset="1" stop-color="#1A0F91"/>
</linearGradient>
<linearGradient id="paint21_linear_24_3281" x1="66.9097" y1="126.846" x2="59.0126" y2="121.926" gradientUnits="userSpaceOnUse">
<stop stop-color="#FEBBBA"/>
<stop offset="1" stop-color="#FF928E"/>
</linearGradient>
<linearGradient id="paint22_linear_24_3281" x1="69.2129" y1="138.532" x2="80.4193" y2="185.226" gradientUnits="userSpaceOnUse">
<stop stop-color="#09005D"/>
<stop offset="1" stop-color="#1A0F91"/>
</linearGradient>
<linearGradient id="paint23_linear_24_3281" x1="61.534" y1="150.885" x2="67.8833" y2="150.885" gradientUnits="userSpaceOnUse">
<stop stop-color="#FEBBBA"/>
<stop offset="1" stop-color="#FF928E"/>
</linearGradient>
<linearGradient id="paint24_linear_24_3281" x1="188.075" y1="114.177" x2="205.111" y2="141.48" gradientUnits="userSpaceOnUse">
<stop stop-color="#FEBBBA"/>
<stop offset="1" stop-color="#FF928E"/>
</linearGradient>
<linearGradient id="paint25_linear_24_3281" x1="235.367" y1="111.664" x2="218.159" y2="123.137" gradientUnits="userSpaceOnUse">
<stop stop-color="#09005D"/>
<stop offset="1" stop-color="#1A0F91"/>
</linearGradient>
<linearGradient id="paint26_linear_24_3281" x1="230.542" y1="113.59" x2="218.129" y2="132.774" gradientUnits="userSpaceOnUse">
<stop stop-color="#FF928E"/>
<stop offset="1" stop-color="#FE7062"/>
</linearGradient>
<linearGradient id="paint27_linear_24_3281" x1="209.056" y1="133.064" x2="212.25" y2="125.97" gradientUnits="userSpaceOnUse">
<stop stop-color="#FEBBBA"/>
<stop offset="1" stop-color="#FF928E"/>
</linearGradient>
<linearGradient id="paint28_linear_24_3281" x1="208.892" y1="115.826" x2="215.374" y2="129.859" gradientUnits="userSpaceOnUse">
<stop stop-color="#FEBBBA"/>
<stop offset="1" stop-color="#FF928E"/>
</linearGradient>
<linearGradient id="paint29_linear_24_3281" x1="230.742" y1="104.729" x2="213.534" y2="116.202" gradientUnits="userSpaceOnUse">
<stop stop-color="#09005D"/>
<stop offset="1" stop-color="#1A0F91"/>
</linearGradient>
<linearGradient id="paint30_linear_24_3281" x1="211.942" y1="114.417" x2="218.424" y2="128.45" gradientUnits="userSpaceOnUse">
<stop stop-color="#FEBBBA"/>
<stop offset="1" stop-color="#FF928E"/>
</linearGradient>
<linearGradient id="paint31_linear_24_3281" x1="226.979" y1="221.396" x2="203.183" y2="178.445" gradientUnits="userSpaceOnUse">
<stop stop-color="#FEBBBA"/>
<stop offset="1" stop-color="#FF928E"/>
</linearGradient>
<linearGradient id="paint32_linear_24_3281" x1="221.847" y1="206.242" x2="214.773" y2="206.175" gradientUnits="userSpaceOnUse">
<stop stop-color="#09005D"/>
<stop offset="1" stop-color="#1A0F91"/>
</linearGradient>
<linearGradient id="paint33_linear_24_3281" x1="199.853" y1="189.532" x2="235.938" y2="201.449" gradientUnits="userSpaceOnUse">
<stop stop-color="#FEBBBA"/>
<stop offset="1" stop-color="#FF928E"/>
</linearGradient>
<linearGradient id="paint34_linear_24_3281" x1="215.276" y1="207.457" x2="206.843" y2="207.377" gradientUnits="userSpaceOnUse">
<stop stop-color="#09005D"/>
<stop offset="1" stop-color="#1A0F91"/>
</linearGradient>
<linearGradient id="paint35_linear_24_3281" x1="240.41" y1="144.357" x2="220.098" y2="159.93" gradientUnits="userSpaceOnUse">
<stop stop-color="#09005D"/>
<stop offset="1" stop-color="#1A0F91"/>
</linearGradient>
<linearGradient id="paint36_linear_24_3281" x1="224.694" y1="155.132" x2="190.586" y2="104.56" gradientUnits="userSpaceOnUse">
<stop stop-color="#FEBBBA"/>
<stop offset="1" stop-color="#FF928E"/>
</linearGradient>
<linearGradient id="paint37_linear_24_3281" x1="152.226" y1="198.214" x2="154.45" y2="206.828" gradientUnits="userSpaceOnUse">
<stop stop-color="#09005D"/>
<stop offset="1" stop-color="#1A0F91"/>
</linearGradient>
<linearGradient id="paint38_linear_24_3281" x1="159.031" y1="202.952" x2="155.109" y2="202.084" gradientUnits="userSpaceOnUse">
<stop stop-color="#FEBBBA"/>
<stop offset="1" stop-color="#FF928E"/>
</linearGradient>
<linearGradient id="paint39_linear_24_3281" x1="166.756" y1="193.776" x2="155.259" y2="166.727" gradientUnits="userSpaceOnUse">
<stop stop-color="#09005D"/>
<stop offset="1" stop-color="#1A0F91"/>
</linearGradient>
<linearGradient id="paint40_linear_24_3281" x1="152.778" y1="206.548" x2="162.477" y2="227.418" gradientUnits="userSpaceOnUse">
<stop stop-color="#09005D"/>
<stop offset="1" stop-color="#1A0F91"/>
</linearGradient>
<linearGradient id="paint41_linear_24_3281" x1="158.753" y1="211.926" x2="148.207" y2="209.592" gradientUnits="userSpaceOnUse">
<stop stop-color="#4F52FF"/>
<stop offset="1" stop-color="#4042E2"/>
</linearGradient>
<linearGradient id="paint42_linear_24_3281" x1="161.066" y1="207.2" x2="157.385" y2="206.385" gradientUnits="userSpaceOnUse">
<stop stop-color="#FEBBBA"/>
<stop offset="1" stop-color="#FF928E"/>
</linearGradient>
<linearGradient id="paint43_linear_24_3281" x1="170.187" y1="206.747" x2="176.181" y2="175.309" gradientUnits="userSpaceOnUse">
<stop stop-color="#09005D"/>
<stop offset="1" stop-color="#1A0F91"/>
</linearGradient>
<linearGradient id="paint44_linear_24_3281" x1="181.903" y1="146.012" x2="145.682" y2="174.109" gradientUnits="userSpaceOnUse">
<stop stop-color="#FF928E"/>
<stop offset="1" stop-color="#FE7062"/>
</linearGradient>
<linearGradient id="paint45_linear_24_3281" x1="156.393" y1="165.523" x2="143.553" y2="162.681" gradientUnits="userSpaceOnUse">
<stop stop-color="#FEBBBA"/>
<stop offset="1" stop-color="#FF928E"/>
</linearGradient>
<linearGradient id="paint46_linear_24_3281" x1="140.261" y1="185.023" x2="174.79" y2="163.696" gradientUnits="userSpaceOnUse">
<stop stop-color="#FF928E"/>
<stop offset="1" stop-color="#FE7062"/>
</linearGradient>
<linearGradient id="paint47_linear_24_3281" x1="175.662" y1="146.024" x2="167.142" y2="144.138" gradientUnits="userSpaceOnUse">
<stop stop-color="#FEBBBA"/>
<stop offset="1" stop-color="#FF928E"/>
</linearGradient>
<linearGradient id="paint48_linear_24_3281" x1="142.348" y1="188.402" x2="176.877" y2="167.075" gradientUnits="userSpaceOnUse">
<stop stop-color="#FF928E"/>
<stop offset="1" stop-color="#FE7062"/>
</linearGradient>
<linearGradient id="paint49_linear_24_3281" x1="182.427" y1="167.319" x2="216.262" y2="214.698" gradientUnits="userSpaceOnUse">
<stop stop-color="#FEBBBA"/>
<stop offset="1" stop-color="#FF928E"/>
</linearGradient>
<linearGradient id="paint50_linear_24_3281" x1="170.946" y1="135.104" x2="166.666" y2="155.183" gradientUnits="userSpaceOnUse">
<stop stop-color="#FEBBBA"/>
<stop offset="1" stop-color="#FF928E"/>
</linearGradient>
<linearGradient id="paint51_linear_24_3281" x1="176.865" y1="140.465" x2="168.337" y2="130.613" gradientUnits="userSpaceOnUse">
<stop stop-color="#09005D"/>
<stop offset="1" stop-color="#1A0F91"/>
</linearGradient>
<linearGradient id="paint52_linear_24_3281" x1="172.63" y1="154.243" x2="173.691" y2="141.752" gradientUnits="userSpaceOnUse">
<stop stop-color="#FEBBBA"/>
<stop offset="1" stop-color="#FF928E"/>
</linearGradient>
<linearGradient id="paint53_linear_24_3281" x1="171.755" y1="165.283" x2="154.901" y2="170.811" gradientUnits="userSpaceOnUse">
<stop stop-color="#09005D"/>
<stop offset="1" stop-color="#1A0F91"/>
</linearGradient>
<linearGradient id="paint54_linear_24_3281" x1="148.603" y1="154.233" x2="136.466" y2="167.061" gradientUnits="userSpaceOnUse">
<stop stop-color="#09005D"/>
<stop offset="1" stop-color="#1A0F91"/>
</linearGradient>
</defs>
</svg>
